<svg width="967" height="547" viewBox="0 0 967 547" fill="none" xmlns="http://www.w3.org/2000/svg">
<path d="M14.527 412.734L2.66268 55.4647C2.29652 44.4386 10.9287 35.1988 21.9542 34.8151L951.131 2.48259C958.591 2.223 964.675 8.40428 964.297 15.8592L943.857 418.593C943.69 421.874 941.749 424.803 938.792 426.236L924.743 433.043C922.151 434.299 921.696 437.8 923.881 439.677L940.451 453.909C942.441 455.619 943.587 458.112 943.587 460.736V526C943.587 536.493 935.08 545 924.587 545H33.6419C23.1485 545 14.6419 536.493 14.6419 526V467.964C14.6419 466.074 15.5328 464.294 17.046 463.161L47.9283 440.041C50.1232 438.398 49.8675 435.031 47.4496 433.738L17.6943 417.826C15.8053 416.816 14.5981 414.875 14.527 412.734Z" fill="url(#paint0_linear_121_1719)" stroke="#6699FE" stroke-width="4"/>
<defs>
<linearGradient id="paint0_linear_121_1719" x1="483.5" y1="2" x2="483.5" y2="545" gradientUnits="userSpaceOnUse">
<stop stop-color="#BAD4FF"/>
<stop offset="0.170401" stop-color="#BAD4FF"/>
<stop offset="1" stop-color="#E8F0FF"/>
</linearGradient>
</defs>
</svg>
