<svg width="21" height="20" viewBox="0 0 21 20" fill="none" xmlns="http://www.w3.org/2000/svg">
<path fill-rule="evenodd" clip-rule="evenodd" d="M11.4874 11.2782V18.8031C11.4753 19.396 11.0034 19.8679 10.4105 19.88C9.81757 19.8679 9.34565 19.396 9.33355 18.8031V11.2782H11.4874ZM11.4874 9.12445H19.0136C19.6065 9.12445 20.0905 9.60845 20.0905 10.2013C20.0905 10.7942 19.6065 11.2782 19.0136 11.2782H11.4874V9.12445ZM11.4874 9.12445H9.33355V1.59692C9.33355 1.00402 9.81757 0.52002 10.4105 0.52002C11.0034 0.52002 11.4874 1.00402 11.4874 1.59692V9.12445ZM9.33355 9.12445V11.2782H1.80739C1.21449 11.2782 0.730469 10.7942 0.730469 10.2013C0.730469 9.60845 1.21449 9.12445 1.80739 9.12445H9.33355Z" fill="white"/>
</svg>
