<svg width="24" height="24" viewBox="0 0 24 24" fill="none" xmlns="http://www.w3.org/2000/svg">
<path d="M0 8C0 3.58172 3.58172 0 8 0H16C20.4183 0 24 3.58172 24 8V16C24 20.4183 20.4183 24 16 24H8C3.58172 24 0 20.4183 0 16V8Z" fill="#649FFE"/>
<path d="M13 13V18H11V13H10C8.67392 13 7.40215 12.4732 6.46447 11.5355C5.52678 10.5979 5 9.32608 5 8V6H7C8.32608 6 9.59785 6.52678 10.5355 7.46447C11.4732 8.40215 12 9.67392 12 11H12.083C12.3197 9.60193 13.0438 8.33281 14.1268 7.4176C15.2099 6.50239 16.582 6.00018 18 6H19V7C19 8.5913 18.3679 10.1174 17.2426 11.2426C16.1174 12.3679 14.5913 13 13 13Z" fill="#E7F0FF"/>
</svg>
