<svg width="16" height="17" viewBox="0 0 16 17" fill="none" xmlns="http://www.w3.org/2000/svg">
<g clip-path="url(#clip0_113_89)">
<path d="M12.1907 2.52785L6.22026 8.49637L12.1907 14.4668C12.4133 14.6894 12.5384 14.9914 12.5384 15.3063C12.5384 15.6211 12.4133 15.9231 12.1907 16.1458C11.968 16.3684 11.6661 16.4935 11.3512 16.4935C11.0363 16.4935 10.7344 16.3684 10.5117 16.1458L3.79676 9.43082C3.57805 9.16874 3.45825 8.83821 3.45825 8.49685C3.45825 8.15549 3.57805 7.82496 3.79676 7.56287L10.5117 0.847457C10.7345 0.624811 11.0367 0.499806 11.3517 0.499939C11.6667 0.500073 11.9687 0.625335 12.1914 0.848169C12.414 1.071 12.539 1.37316 12.5389 1.68816C12.5388 2.00316 12.4135 2.30521 12.1907 2.52785Z" fill="#026BFF"/>
</g>
<defs>
<clipPath id="clip0_113_89">
<rect width="16" height="16" fill="white" transform="translate(0 0.5)"/>
</clipPath>
</defs>
</svg>
