<svg width="43" height="50" viewBox="0 0 43 50" fill="none" xmlns="http://www.w3.org/2000/svg">
<path d="M36.8754 6.30237V9.39042L39.5898 9.5132V46.8153L6.59823 45.9558C5.79666 45.9558 5.08011 45.8146 4.52145 45.5875C3.981 45.3726 3.65309 45.0779 3.50735 44.8937C3.42841 44.7709 3.42841 44.6911 3.39197 44.6297C3.42234 44.5683 3.42234 44.5069 3.50735 44.3842C3.58629 44.2614 3.76847 44.0772 4.05994 43.9237C4.60039 43.5861 5.57805 43.4142 6.59215 43.3221L35.2419 41.2347H35.2905L36.8572 41.1119V40.9278H36.8754V9.39042H36.8633V6.30237H36.8754V0.912109H36.8451L6.53143 3.14066C5.34123 3.14066 4.22997 3.35553 3.26445 3.75458C3.1005 3.81598 2.97298 3.87737 2.8576 3.95718C2.03782 4.32553 1.33949 4.86579 0.817258 5.5718C0.410404 6.11206 0.149289 6.76896 0.149289 7.47497V40.94H0.125V44.7034C0.125 45.4278 0.386115 46.0847 0.792969 46.625C1.18768 47.1775 1.72205 47.6257 2.31108 47.9756C3.47092 48.6694 4.95867 49.0377 6.54357 49.05L42.875 49.9954V6.56022L36.8754 6.30237ZM12.4946 16.9171L22.8724 16.1497L24.1962 16.0576L24.4876 19.557L19.3868 19.9438L12.786 20.4349L12.4946 16.9171ZM29.886 8.50023L30.05 8.48181L30.3415 11.9812L26.4187 12.2759L6.92614 13.7186L6.63466 10.2192L29.886 8.50023Z" fill="#003EA5"/>
</svg>
