<svg width="24" height="25" viewBox="0 0 24 25" fill="none" xmlns="http://www.w3.org/2000/svg">
    <path d="M6.75 3.3916H17.25C17.9959 3.3916 18.7113 3.68792 19.2387 4.21536C19.7662 4.74281 20.0625 5.45818 20.0625 6.2041V19.7041C20.0625 20.45 19.7662 21.1654 19.2387 21.6928C18.7113 22.2203 17.9959 22.5166 17.25 22.5166H6.75C6.00408 22.5166 5.28871 22.2203 4.76126 21.6928C4.23382 21.1654 3.9375 20.45 3.9375 19.7041V6.2041C3.9375 5.45818 4.23382 4.74281 4.76126 4.21536C5.28871 3.68792 6.00408 3.3916 6.75 3.3916ZM6.75 4.5166C6.30245 4.5166 5.87323 4.69439 5.55676 5.01086C5.24029 5.32733 5.0625 5.75655 5.0625 6.2041V19.7041C5.0625 20.1517 5.24029 20.5809 5.55676 20.8973C5.87323 21.2138 6.30245 21.3916 6.75 21.3916H17.25C17.6976 21.3916 18.1268 21.2138 18.4432 20.8973C18.7597 20.5809 18.9375 20.1517 18.9375 19.7041V6.2041C18.9375 5.75655 18.7597 5.32733 18.4432 5.01086C18.1268 4.69439 17.6976 4.5166 17.25 4.5166H6.75Z" fill="#36383F"/>
    <path d="M7.3457 15.5671V3.3916H11.1985V15.5671L9.27245 12.6684L7.3457 15.5671ZM8.4707 4.5166V11.8411L9.27245 10.6351L10.0735 11.8411V4.5166H8.4707Z" fill="#003EA5"/>
    <path d="M6.75 3.3916H17.25C17.9959 3.3916 18.7113 3.68792 19.2387 4.21536C19.7662 4.74281 20.0625 5.45818 20.0625 6.2041V18.9541C20.0625 19.5011 19.8452 20.0257 19.4584 20.4125C19.0716 20.7993 18.547 21.0166 18 21.0166H6C5.45299 21.0166 4.92839 20.7993 4.54159 20.4125C4.1548 20.0257 3.9375 19.5011 3.9375 18.9541V6.2041C3.9375 5.45818 4.23382 4.74281 4.76126 4.21536C5.28871 3.68792 6.00408 3.3916 6.75 3.3916ZM6.75 4.5166C6.30245 4.5166 5.87323 4.69439 5.55676 5.01086C5.24029 5.32733 5.0625 5.75655 5.0625 6.2041V18.9541C5.0625 19.4716 5.4825 19.8916 6 19.8916H18C18.5175 19.8916 18.9375 19.4716 18.9375 18.9541V6.2041C18.9375 5.75655 18.7597 5.32733 18.4432 5.01086C18.1268 4.69439 17.6976 4.5166 17.25 4.5166H6.75Z" fill="#36383F"/>
</svg>
