<svg width="42" height="42" viewBox="0 0 42 42" fill="none" xmlns="http://www.w3.org/2000/svg">
<g clip-path="url(#clip0_834_22)">
<path d="M41.44 32.2903C41.5792 33.1258 41.4052 33.8777 40.9178 34.5461C40.4305 35.2145 39.769 35.6183 38.9336 35.7576L33.9207 36.5513C33.1131 36.6905 32.3681 36.5165 31.6858 36.0291C31.0035 35.5417 30.5927 34.8803 30.4535 34.0448L26.1925 7.05889C26.1368 6.64115 26.1577 6.2443 26.2552 5.86834C26.3527 5.49237 26.5128 5.14426 26.7356 4.82399C26.9584 4.50372 27.2438 4.23915 27.592 4.03029C27.9401 3.82142 28.323 3.67521 28.7407 3.59166L33.7118 2.79795C34.5473 2.65871 35.2992 2.83973 35.9676 3.34102C36.636 3.8423 37.0398 4.51069 37.1791 5.34616L41.44 32.2903ZM20.4277 2.63086C21.2632 2.63086 21.9734 2.92328 22.5582 3.50811C23.143 4.09295 23.4355 4.8031 23.4355 5.63858V33.5435C23.4355 34.379 23.143 35.0892 22.5582 35.674C21.9734 36.2589 21.2632 36.5513 20.4277 36.5513H16.0832C15.2478 36.5513 14.5376 36.2589 13.9528 35.674C13.3679 35.0892 13.0755 34.379 13.0755 33.5435V5.63858C13.0755 4.8031 13.2983 4.09295 13.7439 3.50811C14.1895 2.92328 14.844 2.63086 15.7073 2.63086H20.4277ZM20.4277 23.6849C20.7062 23.6849 20.9429 23.5526 21.1379 23.2881C21.3328 23.0235 21.4303 22.7102 21.4303 22.3481C21.4303 21.9582 21.3328 21.638 21.1379 21.3873C20.9429 21.1367 20.7062 21.0114 20.4277 21.0114H16.0832C15.8048 21.0114 15.568 21.1367 15.3731 21.3873C15.1781 21.638 15.0807 21.9582 15.0807 22.3481C15.0807 22.7102 15.1781 23.0235 15.3731 23.2881C15.568 23.5526 15.8048 23.6849 16.0832 23.6849H20.4277ZM20.4277 18.3796C20.7062 18.3796 20.9429 18.2473 21.1379 17.9828C21.3328 17.7182 21.4303 17.391 21.4303 17.0011C21.4303 16.6112 21.3328 16.2909 21.1379 16.0403C20.9429 15.7896 20.7062 15.6643 20.4277 15.6643H16.0832C15.8048 15.6643 15.568 15.7896 15.3731 16.0403C15.1781 16.2909 15.0807 16.6112 15.0807 17.0011C15.0807 17.391 15.1781 17.7182 15.3731 17.9828C15.568 18.2473 15.8048 18.3796 16.0832 18.3796H20.4277ZM7.31073 2.63086C8.14621 2.63086 8.86333 2.92328 9.46208 3.50811C10.0608 4.09295 10.3602 4.8031 10.3602 5.63858V33.5435C10.3602 34.379 10.0608 35.0892 9.46208 35.674C8.86333 36.2589 8.14621 36.5513 7.31073 36.5513H2.96624C2.13076 36.5513 1.41365 36.2589 0.814887 35.674C0.216128 35.0892 -0.083252 34.379 -0.083252 33.5435V5.63858C-0.083252 4.8031 0.216128 4.09295 0.814887 3.50811C1.41365 2.92328 2.13076 2.63086 2.96624 2.63086H7.31073ZM3.13334 13.0743C2.827 13.0743 2.57635 13.1997 2.38141 13.4503C2.18646 13.7009 2.08899 14.0212 2.08899 14.4111C2.08899 14.7731 2.18646 15.0864 2.38141 15.351C2.57635 15.6156 2.827 15.7479 3.13334 15.7479H7.14363C7.44998 15.7479 7.69366 15.6156 7.87468 15.351C8.0557 15.0864 8.14621 14.7731 8.14621 14.4111C8.14621 14.0212 8.0557 13.7009 7.87468 13.4503C7.69366 13.1997 7.44998 13.0743 7.14363 13.0743H3.13334ZM7.31073 26.1913C7.61707 26.1913 7.86075 26.066 8.04177 25.8154C8.22279 25.5647 8.3133 25.2584 8.3133 24.8963C8.3133 24.5065 8.22279 24.1932 8.04177 23.9564C7.86075 23.7197 7.61707 23.6014 7.31073 23.6014H3.13334C2.827 23.6014 2.57635 23.7197 2.38141 23.9564C2.18646 24.1932 2.08899 24.5065 2.08899 24.8963C2.08899 25.2584 2.18646 25.5647 2.38141 25.8154C2.57635 26.066 2.827 26.1913 3.13334 26.1913H7.31073ZM7.31073 21.0532C7.61707 21.0532 7.86075 20.9278 8.04177 20.6772C8.22279 20.4265 8.3133 20.1063 8.3133 19.7164C8.3133 19.3265 8.22279 19.0062 8.04177 18.7556C7.86075 18.5049 7.61707 18.3796 7.31073 18.3796H3.13334C2.827 18.3796 2.57635 18.5049 2.38141 18.7556C2.18646 19.0062 2.08899 19.3265 2.08899 19.7164C2.08899 20.1063 2.18646 20.4265 2.38141 20.6772C2.57635 20.9278 2.827 21.0532 3.13334 21.0532H7.31073Z" fill="url(#paint0_linear_834_22)"/>
</g>
<defs>
<linearGradient id="paint0_linear_834_22" x1="-0.083252" y1="13.9572" x2="39.8456" y2="16.1415" gradientUnits="userSpaceOnUse">
<stop stop-color="#FE942B"/>
<stop offset="1" stop-color="#FECD39"/>
</linearGradient>
<clipPath id="clip0_834_22">
<rect width="41.8555" height="41.8555" fill="white"/>
</clipPath>
</defs>
</svg>
