<svg width="42" height="42" viewBox="0 0 42 42" fill="none" xmlns="http://www.w3.org/2000/svg">
<g clip-path="url(#clip0_834_29)">
<path d="M41.1371 10.5363C41.7981 11.4825 41.9536 12.5517 41.5907 13.7441L34.7344 36.3219C34.4169 37.3847 33.7818 38.279 32.8292 38.9983C31.883 39.7176 30.8656 40.0805 29.7834 40.0805H6.79737C5.51425 40.0805 4.28946 39.6334 3.10354 38.7456C1.91115 37.8513 1.08813 36.7626 0.621544 35.4665C0.30539 34.5945 0.229984 33.7546 0.389012 32.95C0.475137 32.5143 0.587763 32.0775 0.640986 31.6365C0.692829 31.2542 0.725231 30.9496 0.738192 30.7163C0.751153 30.5867 0.725231 30.4053 0.666907 30.1849C0.602103 29.9646 0.576181 29.7961 0.595623 29.6989C0.628025 29.5175 0.692829 29.3425 0.790035 29.174C0.887241 29.0055 1.02333 28.8111 1.1983 28.5908C1.36679 28.3704 1.50936 28.1695 1.60657 28.0075C1.98891 27.3789 2.36477 26.6207 2.72768 25.7264C3.09058 24.8321 3.33684 24.0804 3.47292 23.4453C3.52477 23.2768 3.52477 23.0306 3.48589 22.7001C3.447 22.3696 3.44052 22.1363 3.47292 22.0067C3.52477 21.8252 3.66086 21.5919 3.90063 21.3133C4.12745 21.0281 4.2765 20.8402 4.32834 20.743C4.67828 20.1468 5.02174 19.3821 5.37817 18.4489C5.72811 17.5222 5.93548 16.777 6.00028 16.2067C6.01325 16.0576 5.9938 15.7919 5.93548 15.4096C5.8652 14.9489 6.015 14.4738 6.32816 14.1286C6.38038 14.0711 6.43746 14.012 6.49928 13.9515C6.79737 13.6599 6.97883 13.472 7.05011 13.3942C7.36765 12.9665 7.71759 12.2666 8.10642 11.2881C8.49524 10.316 8.72206 9.51243 8.79334 8.88383C8.8063 8.75422 8.78038 8.53389 8.72206 8.24875C8.65725 7.95713 8.63781 7.74328 8.67021 7.58775C8.70262 7.45814 8.78038 7.30261 8.89055 7.13412C9.00719 6.96563 9.16272 6.77769 9.34418 6.56384C9.52563 6.34999 9.6682 6.17502 9.77188 6.03893C9.90149 5.84451 10.0441 5.5853 10.1801 5.27424C10.3227 4.96318 10.4523 4.67804 10.556 4.40586C10.6662 4.13369 10.7958 3.83559 10.9578 3.51157C11.1133 3.18755 11.2818 2.92833 11.4438 2.71448C11.6123 2.5071 11.8327 2.31269 12.1048 2.13124C12.377 1.94979 12.6751 1.85258 12.9991 1.83962C13.3165 1.82693 13.6961 1.87641 14.15 1.9698C14.165 1.97289 14.1739 1.98864 14.1686 2.00307C14.1618 2.02192 14.1787 2.04082 14.1982 2.03623C14.8017 1.89451 15.2078 1.82666 15.4228 1.82666H34.378C35.6093 1.82666 36.5489 2.29325 37.2164 3.21995C37.8774 4.15313 38.033 5.22888 37.67 6.45367L30.8332 29.0185C30.237 30.995 29.6473 32.2651 29.0511 32.8419C28.4614 33.4122 27.3986 33.7038 25.8498 33.7038H4.19873C3.7451 33.7038 3.43404 33.8269 3.25259 34.0797C3.07114 34.3518 3.06466 34.7018 3.22667 35.1489C3.62197 36.3089 4.81437 36.8922 6.81034 36.8922H29.8028C30.2824 36.8922 30.749 36.7626 31.1961 36.5033C31.6497 36.2441 31.9349 35.9007 32.0645 35.473L39.5364 10.8863C39.7375 10.2495 40.3888 9.75449 40.864 10.2237C40.963 10.3215 41.0541 10.4257 41.1371 10.5363ZM12.5714 16.9649C12.5066 17.1788 12.5196 17.3667 12.6233 17.5222C12.7205 17.6777 12.8954 17.7555 13.1223 17.7555H28.267C28.4808 17.7555 28.6947 17.6777 28.9021 17.5222C29.1094 17.3667 29.252 17.1723 29.3103 16.9649L29.8352 15.3707C29.9 15.1569 29.8871 14.9689 29.7834 14.8134C29.6862 14.6579 29.5112 14.5801 29.2844 14.5801H14.1397C13.9258 14.5801 13.712 14.6579 13.5046 14.8134C13.2972 14.9689 13.1547 15.1633 13.0963 15.3707L12.5714 16.9649ZM14.6322 10.5817C14.5674 10.7955 14.5803 10.9835 14.684 11.139C14.7812 11.2945 14.9562 11.3723 15.183 11.3723H30.3277C30.5416 11.3723 30.7555 11.2945 30.9628 11.139C31.1702 10.9835 31.3128 10.7891 31.3711 10.5817L31.896 8.98751C31.9608 8.77366 31.9478 8.58573 31.8442 8.4302C31.747 8.27467 31.572 8.1969 31.3452 8.1969H16.2069C15.9931 8.1969 15.7792 8.27467 15.5718 8.4302C15.3645 8.58573 15.2219 8.78014 15.1636 8.98751L14.6322 10.5817Z" fill="url(#paint0_linear_834_29)"/>
</g>
<defs>
<linearGradient id="paint0_linear_834_29" x1="0.30835" y1="14.5825" x2="40.1703" y2="16.5143" gradientUnits="userSpaceOnUse">
<stop stop-color="#6696FF"/>
<stop offset="1" stop-color="#63A2FD"/>
</linearGradient>
<clipPath id="clip0_834_29">
<rect width="41.8555" height="41.8555" fill="white"/>
</clipPath>
</defs>
</svg>
