<svg width="39" height="39" viewBox="0 0 39 39" fill="none" xmlns="http://www.w3.org/2000/svg">
<path d="M27.1765 17.7389L26.3235 17.0036C26.1497 16.8599 25.9271 16.7889 25.7022 16.8054C25.4773 16.8218 25.2674 16.9246 25.1164 17.0921L18.0852 25.0357L17.2613 28.0664L20.1744 26.9187L27.265 18.9459C27.4091 18.7829 27.4923 18.5749 27.5004 18.3575C27.4959 18.2367 27.4645 18.1186 27.4084 18.0115C27.3524 17.9045 27.2731 17.8114 27.1765 17.7389ZM20.9973 28.0372L20.9389 28.0664H22.6751C23.2191 28.0598 23.7391 27.8408 24.1238 27.456C24.5085 27.0713 24.7276 26.5514 24.7342 26.0073V23.8296L21.2035 27.8018L20.9973 28.0372ZM22.7043 11.5898H13.113C12.5687 11.5964 12.0486 11.8156 11.6636 12.2005C11.2787 12.5854 11.0596 13.1056 11.053 13.6499V25.9772C11.0596 26.5215 11.2787 27.0416 11.6636 27.4266C12.0486 27.8115 12.5687 28.0306 13.113 28.0372H15.8783L15.9959 27.7133L16.8198 24.6826L16.9083 24.3888L17.1437 24.1535L24.1749 16.1506C24.3509 15.9782 24.5487 15.8298 24.7634 15.709V13.6499C24.757 13.1057 24.5381 12.5855 24.1533 12.2006C23.7685 11.8156 23.2485 11.5964 22.7043 11.5898ZM17.5551 19.6511H13.9952C13.8002 19.6511 13.6132 19.5736 13.4753 19.4357C13.3374 19.2978 13.2599 19.1108 13.2599 18.9158C13.2599 18.7208 13.3374 18.5337 13.4753 18.3958C13.6132 18.2579 13.8002 18.1805 13.9952 18.1805H17.5551C17.652 18.1795 17.7481 18.1978 17.8378 18.2344C17.9275 18.271 18.0091 18.3251 18.0776 18.3935C18.1462 18.462 18.2004 18.5435 18.2371 18.6331C18.2738 18.7228 18.2923 18.8189 18.2914 18.9158C18.3206 19.2981 17.9675 19.6511 17.5551 19.6511ZM20.9389 16.0329H13.9952C13.8046 16.026 13.6241 15.9455 13.4917 15.8083C13.3593 15.6711 13.2853 15.4878 13.2853 15.2971C13.2853 15.1064 13.3593 14.9231 13.4917 14.7858C13.6241 14.6486 13.8046 14.5681 13.9952 14.5613H20.9097C21.0065 14.5604 21.1026 14.5788 21.1922 14.6155C21.2818 14.6521 21.3632 14.7062 21.4316 14.7747C21.5001 14.8431 21.5542 14.9246 21.5909 15.0142C21.6275 15.1038 21.6459 15.1998 21.6451 15.2966C21.6494 15.3919 21.6343 15.4871 21.6008 15.5764C21.5672 15.6657 21.5158 15.7472 21.4498 15.8161C21.3838 15.8849 21.3044 15.9397 21.2166 15.9769C21.1288 16.0142 21.0343 16.0332 20.9389 16.0329Z" fill="#8A919D"/>
</svg>
