<svg width="29" height="30" viewBox="0 0 29 30" fill="none" xmlns="http://www.w3.org/2000/svg">
<path d="M7.73462 12.5298H19.7754" stroke="#64A0FD" stroke-width="1.72011" stroke-linecap="round" stroke-linejoin="round"/>
<path d="M7.73462 17.0452H10.7448" stroke="#64A0FD" stroke-width="1.72011" stroke-linecap="round" stroke-linejoin="round"/>
<path d="M18.7924 24.0204C20.4549 24.0204 21.8026 22.6727 21.8026 21.0102C21.8026 19.3477 20.4549 18 18.7924 18C17.1299 18 15.7822 19.3477 15.7822 21.0102C15.7822 22.6727 17.1299 24.0204 18.7924 24.0204Z" stroke="#64A0FD" stroke-width="1.72011"/>
<path d="M21.6114 4.50946C24.8441 4.50946 27.4646 7.12992 27.4646 10.3626V19.1424C27.4646 22.3751 24.8441 24.9955 21.6114 24.9955H7.56386C4.33115 24.9955 1.71069 22.3751 1.71069 19.1424V10.3626C1.71069 7.12992 4.33115 4.50946 7.56386 4.50946H21.6114ZM21.6114 6.55807H7.56386C6.57842 6.55804 5.63142 6.94037 4.92222 7.62457C4.21302 8.30876 3.79697 9.24144 3.76164 10.2262L3.7593 10.3626V19.1424C3.75927 20.1278 4.1416 21.0748 4.8258 21.784C5.51 22.4932 6.44267 22.9093 7.42748 22.9446L7.56386 22.9469H21.6114C22.5969 22.947 23.5439 22.5646 24.2531 21.8804C24.9623 21.1962 25.3783 20.2635 25.4137 19.2787L25.416 19.1424V10.3626C25.416 9.37719 25.0337 8.43018 24.3495 7.72099C23.6653 7.01179 22.7326 6.59573 21.7478 6.56041L21.6114 6.55807Z" fill="#64A0FD"/>
<path d="M18.7927 27.5322L20.7995 28.5356V23.2538C20.7995 23.2538 20.2272 24.0203 18.7927 24.0203C17.3581 24.0203 16.7859 23.2678 16.7859 23.2678V28.5356L18.7927 27.5322Z" stroke="#64A0FD" stroke-width="1.72011" stroke-linecap="round" stroke-linejoin="round"/>
</svg>
