<svg width="25" height="25" viewBox="0 0 25 25" fill="none" xmlns="http://www.w3.org/2000/svg">
<path fill-rule="evenodd" clip-rule="evenodd" d="M2.52724 24.0711C1.14328 24.0711 0.0150431 22.9579 0 21.574V3.7178C0 0.573795 2.4069 -0.870367 5.21996 0.543685L10.5603 3.17623C11.7788 3.85317 12.576 5.11679 12.6663 6.5158V22.8677C12.6663 23.5296 12.1247 24.0711 11.4628 24.0711H2.52724ZM3.3337 8.4263C3.3337 7.92988 3.73987 7.52371 4.23629 7.52371H8.41827C8.92974 7.52371 9.32086 7.92988 9.32086 8.4263C9.32086 8.92273 8.92974 9.3289 8.41827 9.3289H4.23629C3.73987 9.3289 3.3337 8.92273 3.3337 8.4263ZM24.0684 15.4951V15.7207C23.9781 17.3002 22.6694 18.5488 21.0898 18.5638H21.0597C19.405 18.5638 18.0511 17.2099 18.0511 15.5552C18.0361 16.4578 17.6299 17.3002 16.9379 17.8719C16.246 18.4435 15.3283 18.6692 14.4408 18.5037V12.0351C14.4257 11.659 14.5912 11.3131 14.8921 11.0724C15.1779 10.8317 15.554 10.7414 15.915 10.8317L18.0511 11.3432L18.698 11.4785L21.1049 12.0351C21.6765 12.1404 22.2181 12.351 22.7145 12.6519C22.8348 12.7422 22.9552 12.8475 23.0755 12.9528C23.7073 13.6448 24.0684 14.5473 24.0684 15.4951ZM3.3337 13.2401C3.3337 12.7436 3.73987 12.3375 4.23629 12.3375H8.41827C8.92974 12.3375 9.32086 12.7436 9.32086 13.2401C9.32086 13.7365 8.92974 14.1427 8.41827 14.1427H4.23629C3.73987 14.1427 3.3337 13.7365 3.3337 13.2401ZM14.4415 20.2502C15.7352 20.4156 17.0289 20.0546 18.0519 19.2573C19.8119 20.6714 22.3091 20.6714 24.0691 19.2573V21.0625C24.0691 22.7172 22.7453 24.0561 21.0906 24.0711H15.645C14.9831 24.0711 14.4415 23.5296 14.4415 22.8677V20.2502Z" fill="#8593A7"/>
</svg>
