<svg width="33" height="33" viewBox="0 0 33 33" fill="none" xmlns="http://www.w3.org/2000/svg">
<path d="M3.68008 17.3921H6.18008C6.18008 10.7952 10.8113 5.42645 16.5051 5.42645C22.1988 5.42645 26.8301 10.7952 26.8301 17.3921H29.3301C29.3301 15.4577 28.9988 13.5827 28.3426 11.814C27.7051 10.0983 26.7926 8.55145 25.6301 7.22333C24.4551 5.8827 23.0832 4.82645 21.5551 4.08895C19.9582 3.31708 18.2582 2.92645 16.5051 2.92645C14.752 2.92645 13.0551 3.31708 11.4551 4.08895C9.92383 4.82958 8.55195 5.8827 7.38008 7.22333C6.21758 8.55145 5.30508 10.0952 4.66758 11.814C4.01445 13.5827 3.68008 15.4608 3.68008 17.3921Z" fill="#B3D3FF"/>
<path d="M16.3112 30.964H28.5237C29.5581 30.964 30.3987 30.1265 30.3987 29.089V10.8483C30.3987 9.81395 29.5612 8.97333 28.5237 8.97333H16.3112V30.964Z" fill="#BAD7FF"/>
<path d="M16.3113 8.97644H4.26753C3.23315 8.97644 2.39253 9.81394 2.39253 10.8514V29.0921C2.39253 30.1264 3.23003 30.9671 4.26753 30.9671H16.3113V8.97644Z" fill="white"/>
<path d="M19.2083 18.5796C19.2083 19.3454 18.904 20.0798 18.3625 20.6213C17.821 21.1629 17.0866 21.4671 16.3208 21.4671C15.5549 21.4671 14.8205 21.1629 14.279 20.6213C13.7375 20.0798 13.4333 19.3454 13.4333 18.5796C13.4333 17.8138 13.7375 17.0793 14.279 16.5378C14.8205 15.9963 15.5549 15.6921 16.3208 15.6921C17.0866 15.6921 17.821 15.9963 18.3625 16.5378C18.904 17.0793 19.2083 17.8138 19.2083 18.5796Z" fill="#897200"/>
<path d="M17.0112 20.3046H15.63V22.9733H17.0112V20.3046Z" fill="#897200"/>
</svg>
