<svg width="20" height="20" viewBox="0 0 20 20" fill="none" xmlns="http://www.w3.org/2000/svg">
<g clip-path="url(#clip0_37_2062)">
<path d="M12.3155 19.0476H2.28383C1.67812 19.0476 1.09722 18.807 0.668918 18.3787C0.240617 17.9504 0 17.3695 0 16.7638L0 2.83852C0 2.23281 0.240617 1.65191 0.668918 1.22361C1.09722 0.795304 1.67812 0.554688 2.28383 0.554688L12.3155 0.554688C12.6154 0.554687 12.9123 0.61376 13.1894 0.728534C13.4665 0.843307 13.7183 1.01153 13.9304 1.22361C14.1424 1.43568 14.3107 1.68745 14.4254 1.96453C14.5402 2.24162 14.5993 2.5386 14.5993 2.83852V16.7638C14.5993 17.0637 14.5402 17.3607 14.4254 17.6377C14.3107 17.9148 14.1424 18.1666 13.9304 18.3787C13.7183 18.5907 13.4665 18.759 13.1894 18.8737C12.9123 18.9885 12.6154 19.0476 12.3155 19.0476Z" fill="#F9D11F"/>
<path d="M13.2513 15.9319L18.793 10.389C19.2976 9.86799 19.5772 9.16948 19.5713 8.4442C19.5654 7.71892 19.2747 7.02502 18.7617 6.51222C18.2488 5.99943 17.5548 5.70886 16.8295 5.70321C16.1042 5.69756 15.4058 5.97729 14.885 6.48204L9.34375 12.0244V15.9319H13.2513Z" fill="#026BFF"/>
<path d="M2.7251 15.9326H9.3432V14.1811H2.7251V15.9326ZM2.7251 4.83798H11.8743V3.08594H2.7251V4.83798ZM5.25565 7.75751H9.53824V6.00546H5.25565V7.75751Z" fill="white"/>
<path d="M9.34326 12.0212V15.9287H13.2508L14.5994 14.5807V6.76562L9.34326 12.0212Z" fill="#1565B2"/>
</g>
<defs>
<clipPath id="clip0_37_2062">
<rect width="20" height="20" fill="white"/>
</clipPath>
</defs>
</svg>
