<svg width="29" height="29" viewBox="0 0 29 29" fill="none" xmlns="http://www.w3.org/2000/svg">
<path d="M21.4012 2.01111C24.623 2.01111 27.2345 4.62269 27.2345 7.84444V16.5944C27.2345 19.8162 24.623 22.4278 21.4012 22.4278H7.4012C4.17945 22.4278 1.56787 19.8162 1.56787 16.5944V7.84444C1.56787 4.62269 4.17945 2.01111 7.4012 2.01111H21.4012ZM21.4012 4.05278H7.4012C6.41911 4.05275 5.47531 4.43378 4.76852 5.11566C4.06172 5.79754 3.64708 6.72706 3.61187 7.70853L3.60954 7.84444V16.5944C3.60951 17.5765 3.99055 18.5203 4.67242 19.2271C5.3543 19.9339 6.28382 20.3486 7.26529 20.3838L7.4012 20.3861H21.4012C22.3833 20.3861 23.3271 20.0051 24.0339 19.3232C24.7407 18.6413 25.1553 17.7118 25.1905 16.7304L25.1929 16.5944V7.84444C25.1929 6.86234 24.8119 5.91855 24.13 5.21175C23.4481 4.50496 22.5186 4.09031 21.5371 4.05511L21.4012 4.05278ZM21.4012 24.0319C21.6646 24.0321 21.9177 24.134 22.1077 24.3164C22.2977 24.4988 22.4099 24.7476 22.4207 25.0107C22.4316 25.2739 22.3403 25.5311 22.1659 25.7285C21.9916 25.9259 21.7477 26.0483 21.4852 26.0701L21.4012 26.0736H7.4012C7.13782 26.0735 6.88467 25.9716 6.69468 25.7892C6.50468 25.6068 6.39254 25.358 6.3817 25.0948C6.37085 24.8316 6.46214 24.5745 6.63648 24.3771C6.81082 24.1796 7.05472 24.0572 7.3172 24.0354L7.4012 24.0319H21.4012Z" fill="white"/>
<path d="M12.5141 8.58214C12.6938 8.4031 12.9338 8.2974 13.1872 8.28564C13.4406 8.27389 13.6894 8.35692 13.8849 8.51856L13.9578 8.58506L16.8745 11.5116C17.0535 11.6914 17.1592 11.9314 17.171 12.1848C17.1828 12.4382 17.0997 12.6869 16.9381 12.8825L16.8716 12.9554L13.9549 15.8621C13.7692 16.0476 13.5192 16.1545 13.2568 16.1605C12.9945 16.1665 12.7398 16.0712 12.5459 15.8944C12.3519 15.7176 12.2334 15.4729 12.2151 15.2111C12.1968 14.9493 12.2801 14.6904 12.4476 14.4884L12.5141 14.4155L14.7068 12.2291L12.5112 10.0259C12.3321 9.84615 12.2264 9.60618 12.2147 9.35276C12.2029 9.09933 12.2859 8.8506 12.4476 8.65506L12.5141 8.58214Z" fill="#FFF700"/>
</svg>
