<svg width="46" height="41" viewBox="0 0 46 41" fill="none" xmlns="http://www.w3.org/2000/svg">
<path d="M44.0221 8.67256L44.0166 8.67803C42.8955 7.52412 41.3479 6.88975 39.7401 6.92256H34.4791L33.2705 3.73975C32.926 2.94678 32.3682 2.26318 31.6573 1.771C30.9518 1.23506 30.0987 0.928809 29.2182 0.895996H17.1377C16.2627 0.92334 15.4151 1.22959 14.726 1.771C14.0096 2.26318 13.4518 2.94678 13.1018 3.73975L11.7893 6.92256H6.41899C4.81117 6.88975 3.26352 7.52412 2.14242 8.67803C0.988517 9.79912 0.354142 11.3468 0.386955 12.9491V34.1077C0.354142 35.7155 0.988517 37.2632 2.14242 38.3843C3.26352 39.5382 4.81117 40.1726 6.41899 40.1397H39.7455C41.3479 40.1507 42.8901 39.5163 44.0221 38.3843C45.1541 37.2522 45.7885 35.7101 45.7776 34.1077V12.9491C45.8104 11.3413 45.176 9.79365 44.0221 8.67256ZM23.0823 33.1233C17.5752 33.1233 13.1073 28.6608 13.1073 23.1538C13.1073 17.6468 17.5698 13.1788 23.0768 13.1788C28.5838 13.1788 33.0518 17.6413 33.0518 23.1483C33.0354 28.6499 28.5838 33.1069 23.0823 33.1233ZM23.0823 16.5694C19.3799 16.5694 16.383 19.5718 16.383 23.2687C16.383 26.971 19.3854 29.9679 23.0823 29.9679C26.7846 29.9679 29.7815 26.9655 29.7815 23.2687C29.7979 21.4858 29.0979 19.7741 27.8346 18.5163C26.5768 17.253 24.8651 16.553 23.0823 16.5694Z" fill="#73869C"/>
</svg>
