<svg width="88" height="88" viewBox="0 0 88 88" fill="none" xmlns="http://www.w3.org/2000/svg">
<path d="M32.9872 22.1006L32.9453 21.6984C31.7406 12.7538 39.2415 5.90655 48.823 9.70312C52.7621 11.2641 56.9295 13.6464 59.6868 16.0098C60.2145 16.4618 60.5409 17.105 60.5944 17.7977C60.6478 18.4905 60.4239 19.1761 59.9718 19.7037C59.5197 20.2313 58.8766 20.5578 58.1839 20.6112C57.4911 20.6646 56.8055 20.4407 56.2779 19.9886C53.9941 18.0317 50.3274 15.9323 46.8912 14.5725C41.3808 12.3892 37.6177 15.6599 38.0954 20.6424L38.1373 21.0006C38.7198 25.365 36.9535 29.2685 33.1402 30.8546C28.1472 32.9288 22.708 31.3281 20.3236 26.0984C19.6049 24.5227 17.3169 23.2216 14.9661 23.3138C12.0642 23.4269 9.45352 25.497 7.73333 29.9871C1.90018 45.1986 9.04494 61.9227 24.1307 67.8984C30.0078 70.2283 36.8152 70.5237 43.1554 68.9041C43.8284 68.7318 44.5422 68.8339 45.1398 69.188C45.7375 69.542 46.17 70.1189 46.3423 70.7919C46.5145 71.4648 46.4124 72.1786 46.0584 72.7763C45.7044 73.3739 45.1274 73.8065 44.4545 73.9787C37.075 75.8645 29.1425 75.5187 22.203 72.7677C4.42704 65.7277 -4.00839 45.9843 2.84304 28.1119C5.2798 21.7528 9.65885 18.2789 14.7628 18.0799C19.0078 17.9144 23.1396 20.1709 24.8954 23.5317L25.0882 23.9235C26.2091 26.3812 28.5747 27.0768 31.1308 26.0166C32.4508 25.4677 33.1465 24.0744 32.9872 22.0986V22.1006ZM71.0137 1.63227C71.3789 1.05708 71.9538 0.646832 72.6165 0.488605C73.2792 0.330378 73.9775 0.436624 74.5632 0.784795C75.1488 1.13297 75.5757 1.69565 75.7533 2.35343C75.9309 3.0112 75.8451 3.71229 75.5143 4.30789L75.0596 5.10827L74.7788 5.61951C74.1712 6.73208 73.4924 8.0416 72.7611 9.53551C70.4459 14.2809 68.3861 19.1467 66.5907 24.1121C66.2701 24.9942 65.9558 25.8846 65.6478 26.7835C63.255 33.7606 61.891 41.1715 61.3065 48.2807C61.2495 48.973 60.9198 49.6144 60.39 50.0638C59.8601 50.5131 59.1734 50.7335 58.481 50.6766C57.7887 50.6196 57.1472 50.2899 56.6979 49.76C56.2486 49.2302 56.0282 48.5435 56.0851 47.8511C56.7032 40.3418 58.1427 32.5182 60.6926 25.0843C61.011 24.154 61.3358 23.2342 61.6689 22.3227C63.5284 17.181 65.6616 12.1424 68.0594 7.22865L68.8053 5.72846C69.1699 5.00979 69.5198 4.33932 69.8529 3.71703L70.7413 2.1016C70.8545 1.90255 70.9446 1.74541 71.0137 1.63227ZM85.1042 3.88884C85.4473 3.9143 85.7821 4.00714 86.0894 4.16205C86.3966 4.31695 86.6704 4.53088 86.8949 4.79162C87.1195 5.05236 87.2904 5.35479 87.398 5.68163C87.5057 6.00848 87.5478 6.35332 87.5221 6.69646L87.4089 7.89284C87.3828 8.13321 87.3555 8.37347 87.3272 8.6136L87.1303 10.1976C86.9836 11.3039 86.8076 12.5066 86.596 13.7972C85.5909 19.8617 84.2266 25.8611 82.5103 31.7639C81.1735 36.3839 79.3276 41.0584 77.1025 45.6972C75.5084 49.0137 73.7547 52.2512 71.8476 55.3982L71.1143 56.5925C70.8796 56.9696 70.6491 57.33 70.4312 57.6715L69.5135 59.0586C69.3253 59.3466 69.0822 59.5948 68.7981 59.789C68.514 59.9831 68.1944 60.1194 67.8576 60.19C67.5208 60.2606 67.1734 60.2642 66.8353 60.2006C66.4971 60.1369 66.1747 60.0073 65.8867 59.8191C65.5986 59.6309 65.3504 59.3878 65.1562 59.1037C64.9621 58.8196 64.8259 58.5 64.7552 58.1632C64.6846 57.8264 64.681 57.479 64.7446 57.1409C64.8083 56.8027 64.9379 56.4803 65.1261 56.1923L65.7253 55.2976L66.3455 54.3338C68.5636 50.8168 70.5783 47.1756 72.3798 43.4281C74.4876 39.0365 76.2288 34.6281 77.4775 30.3077C79.1362 24.606 80.4551 18.8108 81.427 12.9528C81.6282 11.7167 81.7979 10.5664 81.9362 9.51665L82.1248 8.01227C82.2232 7.16579 82.2756 6.58751 82.2987 6.30674C82.3466 5.66032 82.6326 5.05464 83.1013 4.60685C83.57 4.15907 84.188 3.901 84.836 3.88255L85.1042 3.88884Z" fill="#CECECE"/>
<path d="M51.1279 55.1382C50.5957 55.6013 49.9378 56.3954 49.326 57.5478C47.8195 60.3847 47.3292 64.087 48.3433 68.6106C49.1667 72.2836 48.6744 75.8937 47.3376 79.2021C47.0598 79.8935 46.74 80.5673 46.3801 81.2198L46.0092 81.8442C44.6913 83.776 46.3717 86.3342 48.6681 85.8922C50.0237 85.6323 52.23 84.9179 54.9999 83.5329C59.5277 81.2701 64.0345 77.9072 68.2208 73.2411C68.5833 72.8367 68.9437 72.4219 69.2999 71.9986C73.8696 66.5636 72.6376 58.7463 67.1124 54.5034C62.4191 50.8954 55.7877 51.0672 51.438 54.8554L51.1279 55.1382ZM63.9214 58.6562C67.1648 61.1495 67.8625 65.5704 65.2917 68.6253C64.9711 69.0066 64.6484 69.3796 64.3216 69.7442L63.5715 70.5613C60.3092 74.0289 56.8772 76.6102 53.4494 78.4394L53.0639 78.6363L53.1665 78.2864C54.0319 75.108 54.2644 71.7346 53.6191 68.267L53.4536 67.4645C52.7119 64.1582 53.0345 61.7341 53.9523 60.0034C54.2037 59.532 54.4216 59.2449 54.5222 59.1339L54.6542 59.0103C57.1056 56.672 61.1117 56.496 63.9214 58.6541V58.6562Z" fill="#CECECE"/>
<path d="M56.9946 63.8986C58.5702 63.27 60.282 63.0814 62.0043 63.6408L62.5449 63.842L62.9325 64.0096C63.2007 64.1374 63.4458 64.282 64.0472 64.6528L64.3279 64.8246C65.7778 65.7151 66.067 65.7319 67.4373 64.5418C67.6973 64.3164 67.9991 64.1445 68.3256 64.0358C68.6521 63.9271 68.9967 63.8838 69.3399 63.9083C69.6831 63.9328 70.0182 64.0247 70.3259 64.1787C70.6336 64.3327 70.9079 64.5458 71.1333 64.8058C71.3586 65.0658 71.5305 65.3677 71.6392 65.6941C71.7479 66.0206 71.7912 66.3653 71.7667 66.7085C71.7422 67.0517 71.6503 67.3867 71.4964 67.6944C71.3424 68.0021 71.1293 68.2764 70.8693 68.5018C67.6468 71.2926 65.0026 71.2675 61.9519 69.5075L60.7807 68.8014C60.7155 68.7631 60.6483 68.7282 60.5796 68.6967L60.502 68.6652C60.0557 68.4871 59.5068 68.5353 58.9369 68.7637L58.6079 68.9146C58.3203 69.1077 57.9973 69.2419 57.6574 69.3094C57.3176 69.3768 56.9677 69.3761 56.6282 69.3074C56.2886 69.2387 55.966 69.1033 55.6791 68.909C55.3923 68.7148 55.1468 68.4655 54.9569 68.1757C54.767 67.8859 54.6365 67.5614 54.573 67.2208C54.5095 66.8802 54.5141 66.5304 54.5867 66.1916C54.6593 65.8528 54.7984 65.5318 54.9959 65.2472C55.1935 64.9626 55.4455 64.72 55.7375 64.5334C56.0245 64.3448 56.4498 64.1144 56.9946 63.8986ZM65.2855 42.8561L73.6119 45.4227L72.0698 50.4304L63.7413 47.8616L65.2855 42.8561ZM20.9104 49.0768C19.7621 49.0768 18.6608 49.533 17.8488 50.345C17.0368 51.157 16.5806 52.2583 16.5806 53.4067C16.5806 54.555 17.0368 55.6563 17.8488 56.4683C18.6608 57.2803 19.7621 57.7365 20.9104 57.7365C22.0587 57.7365 23.16 57.2803 23.972 56.4683C24.784 55.6563 25.2402 54.555 25.2402 53.4067C25.2402 52.2583 24.784 51.157 23.972 50.345C23.16 49.533 22.0587 49.0768 20.9104 49.0768ZM20.9104 52.4984C21.0334 52.4925 21.1562 52.5116 21.2716 52.5546C21.3869 52.5975 21.4923 52.6635 21.5814 52.7484C21.6705 52.8333 21.7415 52.9355 21.7899 53.0486C21.8384 53.1618 21.8634 53.2836 21.8634 53.4067C21.8634 53.5297 21.8384 53.6516 21.7899 53.7647C21.7415 53.8778 21.6705 53.98 21.5814 54.0649C21.4923 54.1498 21.3869 54.2158 21.2716 54.2587C21.1562 54.3017 21.0334 54.3208 20.9104 54.3149C20.6771 54.3037 20.457 54.2031 20.2958 54.034C20.1346 53.8649 20.0447 53.6403 20.0447 53.4067C20.0447 53.173 20.1346 52.9484 20.2958 52.7793C20.457 52.6102 20.6771 52.5096 20.9104 52.4984ZM34.5923 55.9199C34.0238 55.9198 33.4608 56.0317 32.9356 56.2492C32.4103 56.4667 31.933 56.7856 31.531 57.1875C31.129 57.5895 30.8101 58.0667 30.5925 58.592C30.3749 59.1172 30.2629 59.6801 30.2629 60.2486C30.2629 60.8172 30.3749 61.3801 30.5925 61.9053C30.8101 62.4306 31.129 62.9078 31.531 63.3098C31.933 63.7117 32.4103 64.0306 32.9356 64.2481C33.4608 64.4656 34.0238 64.5775 34.5923 64.5774C35.7403 64.5772 36.8411 64.1211 37.6528 63.3093C38.4645 62.4976 38.9205 61.3966 38.9205 60.2486C38.9205 59.1007 38.4645 57.9998 37.6528 57.188C36.8411 56.3762 35.7403 55.9201 34.5923 55.9199ZM34.5923 59.3393C34.8335 59.3393 35.0648 59.4351 35.2353 59.6057C35.4058 59.7762 35.5016 60.0075 35.5016 60.2486C35.5016 60.4898 35.4058 60.7211 35.2353 60.8916C35.0648 61.0622 34.8335 61.158 34.5923 61.158C34.3511 61.158 34.1198 61.0622 33.9493 60.8916C33.7788 60.7211 33.683 60.4898 33.683 60.2486C33.683 60.0075 33.7788 59.7762 33.9493 59.6057C34.1198 59.4351 34.3511 59.3393 34.5923 59.3393ZM15.7771 35.3949C14.6287 35.3949 13.5274 35.8511 12.7154 36.6631C11.9034 37.4751 11.4473 38.5764 11.4473 39.7247C11.4473 40.8731 11.9034 41.9744 12.7154 42.7864C13.5274 43.5984 14.6287 44.0546 15.7771 44.0546C16.9254 44.0546 18.0267 43.5984 18.8387 42.7864C19.6507 41.9744 20.1069 40.8731 20.1069 39.7247C20.1069 38.5764 19.6507 37.4751 18.8387 36.6631C18.0267 35.8511 16.9254 35.3949 15.7771 35.3949ZM15.7771 38.8165C15.9 38.8106 16.0229 38.8297 16.1382 38.8727C16.2536 38.9156 16.359 38.9816 16.4481 39.0665C16.5372 39.1514 16.6081 39.2536 16.6566 39.3667C16.7051 39.4799 16.73 39.6017 16.73 39.7247C16.73 39.8478 16.7051 39.9696 16.6566 40.0828C16.6081 40.1959 16.5372 40.2981 16.4481 40.383C16.359 40.4679 16.2536 40.5339 16.1382 40.5768C16.0229 40.6198 15.9 40.6389 15.7771 40.633C15.5437 40.6218 15.3236 40.5212 15.1625 40.3521C15.0013 40.183 14.9114 39.9584 14.9114 39.7247C14.9114 39.4911 15.0013 39.2665 15.1625 39.0974C15.3236 38.9283 15.5437 38.8277 15.7771 38.8165ZM48.2763 21.7109C47.128 21.7109 46.0267 22.1671 45.2147 22.9791C44.4027 23.7911 43.9465 24.8924 43.9465 26.0407C43.9465 27.1891 44.4027 28.2904 45.2147 29.1024C46.0267 29.9144 47.128 30.3706 48.2763 30.3706C49.4247 30.3706 50.526 29.9144 51.338 29.1024C52.15 28.2904 52.6061 27.1891 52.6061 26.0407C52.6061 24.8924 52.15 23.7911 51.338 22.9791C50.526 22.1671 49.4247 21.7109 48.2763 21.7109ZM48.2763 25.1325C48.5172 25.1325 48.7482 25.2282 48.9186 25.3985C49.0889 25.5688 49.1846 25.7999 49.1846 26.0407C49.1846 26.2816 49.0889 26.5127 48.9186 26.683C48.7482 26.8533 48.5172 26.949 48.2763 26.949C48.0354 26.949 47.8044 26.8533 47.6341 26.683C47.4637 26.5127 47.368 26.2816 47.368 26.0407C47.368 25.7999 47.4637 25.5688 47.6341 25.3985C47.8044 25.2282 48.0354 25.1325 48.2763 25.1325Z" fill="#CECECE"/>
</svg>
