<svg width="24" height="24" viewBox="0 0 24 24" fill="none" xmlns="http://www.w3.org/2000/svg">
<path d="M0 8C0 3.58172 3.58172 0 8 0H16C20.4183 0 24 3.58172 24 8V16C24 20.4183 20.4183 24 16 24H8C3.58172 24 0 20.4183 0 16V8Z" fill="#649FFE"/>
<g clip-path="url(#clip0_37_1820)">
<path d="M10.5 7.4625C10.5 6.38906 9.62651 5.51562 8.55308 5.51562C7.47964 5.51562 6.6062 6.38906 6.6062 7.4625C6.6062 8.53594 7.47964 9.40938 8.55308 9.40938C9.62651 9.40938 10.5 8.5375 10.5 7.4625Z" fill="#E7F0FF"/>
<path d="M7.54688 9.56719C6.13437 10.0156 5.21094 11.3797 5.21094 12.8625V15.2125C5.21094 15.3281 5.30469 15.4219 5.42031 15.4219H6.55V18.2609C6.55 18.3578 6.62812 18.4359 6.725 18.4359H10.3938C10.4906 18.4359 10.5687 18.3578 10.5687 18.2609V15.4219H11.4406C11.6984 15.4219 11.9078 15.2109 11.9078 14.9547V12.6547C11.9094 10.5312 9.71562 8.87812 7.54688 9.56719ZM17.6406 8.11094C17.6406 7.0375 16.7672 6.16406 15.6938 6.16406C14.6203 6.16406 13.7469 7.0375 13.7469 8.11094C13.7469 9.18438 14.6203 10.0578 15.6938 10.0578C16.7672 10.0578 17.6406 9.18438 17.6406 8.11094ZM18.7969 15.7422L17.8125 11.8766C17.5984 10.8234 16.6562 10.0578 15.5703 10.0578C14.4844 10.0578 13.5422 10.8234 13.3359 11.8406L12.3438 15.7422C12.2953 15.9344 12.3375 16.1359 12.4578 16.2938C12.5781 16.4516 12.7625 16.5437 12.9594 16.5484C12.9594 16.5484 13.4422 16.5578 13.8234 16.5609C13.9469 16.9281 14.1297 17.4703 14.2953 17.9953C14.3781 18.2594 14.6234 18.4375 14.9 18.4375H16.2422C16.5156 18.4375 16.7594 18.2609 16.8422 17.9984C17.0078 17.4719 17.1922 16.9156 17.3156 16.5469C17.6969 16.5453 18.1797 16.5422 18.1797 16.5422C18.3766 16.5375 18.5625 16.4484 18.6812 16.2906C18.8031 16.1328 18.8453 15.9344 18.7969 15.7422Z" fill="#E7F0FF"/>
</g>
<defs>
<clipPath id="clip0_37_1820">
<rect width="16" height="16" fill="white" transform="translate(4 4)"/>
</clipPath>
</defs>
</svg>
