<svg width="24" height="24" viewBox="0 0 24 24" fill="none" xmlns="http://www.w3.org/2000/svg">
<path d="M0 8C0 3.58172 3.58172 0 8 0H16C20.4183 0 24 3.58172 24 8V16C24 20.4183 20.4183 24 16 24H8C3.58172 24 0 20.4183 0 16V8Z" fill="#649FFE"/>
<path d="M16.0046 6.20312H7.97983C7.32863 6.20312 7.14062 6.43273 7.14062 7.10713V15.8767C7.14161 15.9631 7.16445 16.0479 7.20703 16.1231C7.22436 16.2479 7.29054 16.3607 7.39103 16.4367L11.7342 19.7167C11.8109 19.7755 11.9048 19.8074 12.0014 19.8074C12.098 19.8074 12.192 19.7755 12.2686 19.7167L16.611 16.4367C16.7072 16.3641 16.7717 16.2573 16.791 16.1383C16.8253 16.0718 16.8432 15.998 16.843 15.9231L16.859 7.08312C16.859 6.44312 16.6246 6.20312 16.0046 6.20312ZM9.98782 12.3879C9.98782 12.3879 9.19502 11.4575 8.71982 10.8943C8.55342 10.6887 8.66142 10.3975 8.99342 10.3431C9.66943 10.2167 10.7198 9.97352 10.7198 9.97352C10.7198 9.97352 11.2534 8.97272 11.6158 8.33352C11.8422 7.88952 11.8982 7.84312 12.0158 7.84312C12.1334 7.84312 12.1638 7.86072 12.4246 8.33352C12.7846 8.97353 13.3102 9.97513 13.3102 9.97513C13.3102 9.97513 14.3502 10.1751 15.0158 10.3015C15.0848 10.3119 15.1499 10.3399 15.2049 10.3827C15.2599 10.4255 15.303 10.4817 15.33 10.546C15.357 10.6103 15.367 10.6804 15.3591 10.7497C15.3511 10.819 15.3255 10.885 15.2846 10.9415L14.0718 12.3927C14.0718 12.3927 14.1918 13.4175 14.2686 14.1175C14.2725 14.236 14.2297 14.3513 14.1493 14.4384C14.0689 14.5255 13.9574 14.5775 13.839 14.5831C13.7665 14.5813 13.6953 14.5639 13.6302 14.5319C13.0702 14.2543 12.2142 13.8215 12.0222 13.7263C11.8278 13.8239 10.9638 14.2463 10.395 14.5263C10.3296 14.5581 10.2581 14.5753 10.1854 14.5767C10.0644 14.5728 9.94972 14.5221 9.8654 14.4352C9.78109 14.3484 9.73378 14.2322 9.73343 14.1111C9.81343 13.4135 9.98782 12.3895 9.98782 12.3895V12.3879Z" fill="#E7F0FF"/>
</svg>
