<svg width="32" height="32" viewBox="0 0 32 32" fill="none" xmlns="http://www.w3.org/2000/svg">
<path d="M16 2C13.2311 2 10.5243 2.82109 8.22202 4.35943C5.91973 5.89777 4.12532 8.08427 3.06569 10.6424C2.00607 13.2006 1.72882 16.0155 2.26901 18.7313C2.80921 21.447 4.14258 23.9416 6.10051 25.8995C8.05845 27.8574 10.553 29.1908 13.2687 29.731C15.9845 30.2712 18.7994 29.9939 21.3576 28.9343C23.9157 27.8747 26.1022 26.0803 27.6406 23.778C29.1789 21.4757 30 18.7689 30 16C29.9959 12.2882 28.5195 8.72969 25.8949 6.10507C23.2703 3.48046 19.7118 2.00414 16 2ZM16 28C13.6266 28 11.3066 27.2962 9.33316 25.9776C7.35977 24.6591 5.8217 22.7849 4.91345 20.5922C4.0052 18.3995 3.76756 15.9867 4.23058 13.6589C4.69361 11.3311 5.83649 9.19295 7.51472 7.51472C9.19296 5.83649 11.3312 4.6936 13.6589 4.23058C15.9867 3.76755 18.3995 4.00519 20.5922 4.91345C22.7849 5.8217 24.6591 7.35977 25.9776 9.33316C27.2962 11.3065 28 13.6266 28 16C27.9959 19.1813 26.7303 22.2312 24.4807 24.4807C22.2312 26.7303 19.1813 27.9959 16 28Z" fill="#6FA1FE"/>
<path d="M8.5 12.5C8.5 12.8978 8.65804 13.2794 8.93934 13.5607C9.22064 13.842 9.60218 14 10 14C10.3978 14 10.7794 13.842 11.0607 13.5607C11.342 13.2794 11.5 12.8978 11.5 12.5C11.5 12.1022 11.342 11.7206 11.0607 11.4393C10.7794 11.158 10.3978 11 10 11C9.60218 11 9.22064 11.158 8.93934 11.4393C8.65804 11.7206 8.5 12.1022 8.5 12.5Z" fill="#6FA1FE"/>
<path d="M14 14C14.2967 14 14.5867 13.912 14.8334 13.7472C15.08 13.5824 15.2723 13.3481 15.3858 13.074C15.4994 12.7999 15.5291 12.4983 15.4712 12.2074C15.4133 11.9164 15.2704 11.6491 15.0607 11.4393C14.8509 11.2296 14.5836 11.0867 14.2926 11.0288C14.0017 10.9709 13.7001 11.0006 13.426 11.1142C13.1519 11.2277 12.9176 11.42 12.7528 11.6666C12.588 11.9133 12.5 12.2033 12.5 12.5C12.5 12.8978 12.658 13.2794 12.9393 13.5607C13.2206 13.842 13.6022 14 14 14ZM18 11C17.7033 11 17.4133 11.088 17.1666 11.2528C16.92 11.4176 16.7277 11.6519 16.6142 11.926C16.5006 12.2001 16.4709 12.5017 16.5288 12.7926C16.5867 13.0836 16.7296 13.3509 16.9393 13.5607C17.1491 13.7704 17.4164 13.9133 17.7074 13.9712C17.9983 14.0291 18.2999 13.9994 18.574 13.8858C18.8481 13.7723 19.0824 13.58 19.2472 13.3334C19.412 13.0867 19.5 12.7967 19.5 12.5C19.5 12.1022 19.342 11.7206 19.0607 11.4393C18.7794 11.158 18.3978 11 18 11ZM22 11C21.7033 11 21.4133 11.088 21.1666 11.2528C20.92 11.4176 20.7277 11.6519 20.6142 11.926C20.5007 12.2001 20.4709 12.5017 20.5288 12.7926C20.5867 13.0836 20.7296 13.3509 20.9393 13.5607C21.1491 13.7704 21.4164 13.9133 21.7074 13.9712C21.9983 14.0291 22.2999 13.9994 22.574 13.8858C22.8481 13.7723 23.0824 13.58 23.2472 13.3334C23.412 13.0867 23.5 12.7967 23.5 12.5C23.5 12.1022 23.342 11.7206 23.0607 11.4393C22.7794 11.158 22.3978 11 22 11Z" fill="#6FA1FE"/>
<path d="M8.5 16.5C8.5 16.8978 8.65804 17.2794 8.93934 17.5607C9.22064 17.842 9.60218 18 10 18C10.3978 18 10.7794 17.842 11.0607 17.5607C11.342 17.2794 11.5 16.8978 11.5 16.5C11.5 16.1022 11.342 15.7206 11.0607 15.4393C10.7794 15.158 10.3978 15 10 15C9.60218 15 9.22064 15.158 8.93934 15.4393C8.65804 15.7206 8.5 16.1022 8.5 16.5Z" fill="#6FA1FE"/>
<path d="M14 18C14.2967 18 14.5867 17.912 14.8334 17.7472C15.08 17.5824 15.2723 17.3481 15.3858 17.074C15.4994 16.7999 15.5291 16.4983 15.4712 16.2074C15.4133 15.9164 15.2704 15.6491 15.0607 15.4393C14.8509 15.2296 14.5836 15.0867 14.2926 15.0288C14.0017 14.9709 13.7001 15.0006 13.426 15.1142C13.1519 15.2277 12.9176 15.42 12.7528 15.6666C12.588 15.9133 12.5 16.2033 12.5 16.5C12.5 16.8978 12.658 17.2794 12.9393 17.5607C13.2206 17.842 13.6022 18 14 18ZM18 20H14C13.6022 20 13.2206 20.158 12.9393 20.4393C12.658 20.7206 12.5 21.1022 12.5 21.5C12.5 21.8978 12.658 22.2794 12.9393 22.5607C13.2206 22.842 13.6022 23 14 23H18C18.3978 23 18.7794 22.842 19.0607 22.5607C19.342 22.2794 19.5 21.8978 19.5 21.5C19.5 21.1022 19.342 20.7206 19.0607 20.4393C18.7794 20.158 18.3978 20 18 20ZM18 15C17.7033 15 17.4133 15.088 17.1666 15.2528C16.92 15.4176 16.7277 15.6519 16.6142 15.926C16.5006 16.2001 16.4709 16.5017 16.5288 16.7926C16.5867 17.0836 16.7296 17.3509 16.9393 17.5607C17.1491 17.7704 17.4164 17.9133 17.7074 17.9712C17.9983 18.0291 18.2999 17.9994 18.574 17.8858C18.8481 17.7723 19.0824 17.58 19.2472 17.3334C19.412 17.0867 19.5 16.7967 19.5 16.5C19.5 16.1022 19.342 15.7206 19.0607 15.4393C18.7794 15.158 18.3978 15 18 15ZM22 15C21.7033 15 21.4133 15.088 21.1666 15.2528C20.92 15.4176 20.7277 15.6519 20.6142 15.926C20.5007 16.2001 20.4709 16.5017 20.5288 16.7926C20.5867 17.0836 20.7296 17.3509 20.9393 17.5607C21.1491 17.7704 21.4164 17.9133 21.7074 17.9712C21.9983 18.0291 22.2999 17.9994 22.574 17.8858C22.8481 17.7723 23.0824 17.58 23.2472 17.3334C23.412 17.0867 23.5 16.7967 23.5 16.5C23.5 16.1022 23.342 15.7206 23.0607 15.4393C22.7794 15.158 22.3978 15 22 15Z" fill="#6FA1FE"/>
</svg>
