<svg width="24" height="24" viewBox="0 0 24 24" fill="none" xmlns="http://www.w3.org/2000/svg">
<path d="M0 8C0 3.58172 3.58172 0 8 0H16C20.4183 0 24 3.58172 24 8V16C24 20.4183 20.4183 24 16 24H8C3.58172 24 0 20.4183 0 16V8Z" fill="#649FFE"/>
<path d="M16.9716 9.94122H15.4288V8.78822C15.4288 6.40219 14.2848 5 12.0002 5C9.71557 5 8.57156 6.40219 8.57156 8.78822V9.94122H6.85719C6.3836 9.94122 6 10.4745 6 10.9294V17.3528C6 17.8058 6.36721 18.2903 6.8159 18.4293L7.84151 18.7472C8.2902 18.8863 9.04296 19 9.51423 19H14.4858C14.9572 19 15.7102 18.8863 16.159 18.7472L17.1845 18.4293C17.633 18.2904 18 17.8058 18 17.3528V10.9293C18.0002 10.4745 17.4452 9.94122 16.9716 9.94122ZM10.2858 8.45876C10.2858 7.26878 10.9692 6.64696 12.0002 6.64696C13.031 6.64696 13.7144 7.26878 13.7144 8.45876V9.94122H10.2858V8.45876Z" fill="#E7F0FF"/>
</svg>
