<svg width="24" height="24" viewBox="0 0 24 24" fill="none" xmlns="http://www.w3.org/2000/svg">
<path d="M0 8C0 3.58172 3.58172 0 8 0H16C20.4183 0 24 3.58172 24 8V16C24 20.4183 20.4183 24 16 24H8C3.58172 24 0 20.4183 0 16V8Z" fill="#659BFE"/>
<path d="M16.246 10.4388H9.93233V8.09993C9.93233 7.32529 10.8748 6.46329 12.0364 6.46329C13.1984 6.46329 14.142 7.32529 14.142 8.09993V8.80193H14.1502C14.1781 8.99665 14.2752 9.1748 14.4238 9.30366C14.5724 9.43253 14.7625 9.50347 14.9592 9.50345C15.3724 9.50345 15.7126 9.19865 15.7696 8.80193H15.7789V8.10001C15.7789 6.29201 14.1026 4.82617 12.0365 4.82617C9.97065 4.82617 8.29489 6.29201 8.29489 8.10001V10.4388H7.82681C7.05257 10.4388 6.42441 11.0671 6.42441 11.8418V17.4546C6.42441 18.2293 7.05257 18.8573 7.82681 18.8573H16.246C17.0213 18.8573 17.6489 18.2293 17.6489 17.4546V11.8418C17.6489 11.0671 17.0213 10.4388 16.246 10.4388ZM12.7386 15.6188V16.2585C12.7386 16.6603 12.4242 16.9858 12.0364 16.9858C11.6496 16.9858 11.3347 16.6603 11.3347 16.2585V15.6189C10.7822 15.3599 10.399 14.8037 10.399 14.1591C10.399 13.2666 11.1327 12.5429 12.0364 12.5429C12.941 12.5429 13.6738 13.2666 13.6738 14.1591C13.6738 14.8036 13.2916 15.3599 12.7386 15.6189V15.6188Z" fill="white"/>
<rect x="14.1338" y="8.63281" width="1.64746" height="2.16602" fill="white"/>
</svg>
