<svg width="57" height="57" viewBox="0 0 57 57" fill="none" xmlns="http://www.w3.org/2000/svg">
<path d="M43.24 49.762H13.16C11.092 49.762 9.40002 47.976 9.40002 45.814V25.416C9.40002 23.254 11.092 21.468 13.16 21.468H43.24C45.308 21.468 47 23.254 47 25.416V45.814C47 47.976 45.308 49.762 43.24 49.762ZM13.16 25.228V45.814C13.16 45.908 13.254 46.002 13.254 46.002H43.24V25.416C43.24 25.322 43.146 25.228 43.146 25.228H13.16Z" fill="#026BFF"/>
<path d="M37.6 25.322H18.8V17.332C18.8 12.162 23.03 7.93201 28.2 7.93201C30.644 7.93201 32.994 8.87201 34.874 10.564C36.66 12.35 37.6 14.7 37.6 17.332V25.322ZM22.56 21.562H33.84V17.332C33.84 15.734 33.276 14.324 32.242 13.29C31.114 12.256 29.704 11.692 28.2 11.692C25.098 11.692 22.56 14.23 22.56 17.332V21.562Z" fill="#026BFF"/>
<path d="M28.2001 39.8921C27.1661 39.8921 26.3201 39.0461 26.3201 38.0121V30.4921C26.3201 29.4581 27.1661 28.6121 28.2001 28.6121C29.2341 28.6121 30.0801 29.4581 30.0801 30.4921V38.0121C30.0801 39.0461 29.2341 39.8921 28.2001 39.8921Z" fill="#026BFF"/>
<path d="M24.4399 38.952C24.4399 39.9492 24.8361 40.9056 25.5412 41.6107C26.2464 42.3159 27.2027 42.712 28.1999 42.712C29.1972 42.712 30.1535 42.3159 30.8587 41.6107C31.5638 40.9056 31.9599 39.9492 31.9599 38.952C31.9599 37.9548 31.5638 36.9984 30.8587 36.2933C30.1535 35.5882 29.1972 35.192 28.1999 35.192C27.2027 35.192 26.2464 35.5882 25.5412 36.2933C24.8361 36.9984 24.4399 37.9548 24.4399 38.952Z" fill="#026BFF"/>
</svg>
