<svg width="107" height="104" viewBox="0 0 107 104" fill="none" xmlns="http://www.w3.org/2000/svg">
<path d="M82.7375 48.24C83.2809 47.7035 83.6636 47.0085 83.7906 46.2203C84.0414 44.6482 83.2587 43.1114 81.8243 42.3872L58.112 30.4225L62.2333 4.388C62.4793 2.816 61.8113 1.40274 60.3757 0.683058C58.9401 -0.0351559 57.4753 0.511648 56.3382 1.63706L38.0963 19.6702L13.6084 8.07405C12.1716 7.35096 10.1855 7.38473 9.04505 8.51125L9.11381 8.58123C7.97444 9.70774 7.8368 11.5702 8.56808 12.9905L20.342 37.509L2.09096 55.2706C0.954032 56.3959 0.39892 57.8443 1.12667 59.2635C1.85431 60.6829 3.14645 61.2065 4.73607 60.9639L31.1459 56.9487L43.3222 80.4853C44.0557 81.9032 45.6287 82.6927 47.2197 82.4432C48.0149 82.3186 48.7251 81.9479 49.2676 81.4101C49.8098 80.8747 50.1866 80.1739 50.3123 79.3879L54.4906 53.4327L80.6917 49.266C81.4848 49.1403 82.1964 48.7763 82.7375 48.24ZM65.7267 56.2586L57.9201 57.1941L56.8551 63.8022L92.531 103.826C92.531 103.826 97.9502 102.374 100.726 99.6246C104.107 96.273 106.158 90.2915 106.158 90.2915L65.7267 56.2586Z" fill="white"/>
</svg>
