<svg xmlns="http://www.w3.org/2000/svg" width="36" height="36" viewBox="10 6 46 44" fill="none">

  
  
  
  <path opacity="0.01" d="M12 5H52V45H12V5Z" fill="#202425"/>

  
  
  
  <path d="M14.6667 18.3333C14.6667 17.9797 14.8072 17.6406 15.0573 17.3905C15.3073 17.1405 15.6465 17 16.0001 17C16.3537 17 16.6928 17.1405 16.9429 17.3905C17.1929 17.6406 17.3334 17.9797 17.3334 18.3333V21H46.6667V18.3333C46.6667 17.9797 46.8072 17.6406 47.0573 17.3905C47.3073 17.1405 47.6465 17 48.0001 17C48.3537 17 48.6928 17.1405 48.9429 17.3905C49.1929 17.6406 49.3334 17.9797 49.3334 18.3333V26.3333C49.3334 26.687 49.1929 27.0261 48.9429 27.2761C48.6928 27.5262 48.3537 27.6667 48.0001 27.6667C47.6465 27.6667 47.3073 27.5262 47.0573 27.2761C46.8072 27.0261 46.6667 26.687 46.6667 26.3333V23.6667H45.3334V25C45.3334 32.364 39.3641 38.3333 32.0001 38.3333C24.6361 38.3333 18.6667 32.364 18.6667 25V23.6667H17.3334V26.3333C17.3334 26.687 17.1929 27.0261 16.9429 27.2761C16.6928 27.5262 16.3537 27.6667 16.0001 27.6667C15.6465 27.6667 15.3073 27.5262 15.0573 27.2761C14.8072 27.0261 14.6667 26.687 14.6667 26.3333V18.3333Z" fill="#FFAA44"/>

  
  
  
  <g filter="url(#filter0_d_838_612)">

    
    
    
    <path d="M21.3334 17C21.3334 14.1711 22.4572 11.458 24.4576 9.45757C26.458 7.45718 29.1711 6.33337 32 6.33337C34.829 6.33337 37.5421 7.45718 39.5425 9.45757C41.5429 11.458 42.6667 14.1711 42.6667 17V25C42.6667 27.5982 41.7185 30.107 40 32.0557C38.6632 33.5717 36.9316 34.6677 35.0149 35.2326C34.0723 35.5105 33.3334 36.321 33.3334 37.3037C33.3334 38.1598 33.8918 38.9158 34.7101 39.1676L45.096 42.3627C45.828 42.588 45.6654 43.6667 44.9 43.6667H19.1C18.3347 43.6667 18.1734 42.5867 18.904 42.3627L29.29 39.1676C30.1083 38.9158 30.6667 38.1598 30.6667 37.3037C30.6667 36.321 29.9278 35.5105 28.9852 35.2326C27.0685 34.6677 25.3369 33.5717 24.0001 32.0557C22.2816 30.107 21.3334 27.5982 21.3334 25V17Z" fill="url(#paint0_linear_838_612)"/>
</g>

    
    
    
    <path d="M25.3333 21.6667C25.3333 21.4899 25.4035 21.3203 25.5285 21.1953C25.6535 21.0702 25.8231 21 25.9999 21H37.9999C38.1767 21 38.3462 21.0703 38.4712 21.1953C38.5962 21.3203 38.6664 21.4899 38.6664 21.6667C38.6664 21.8434 38.5962 22.013 38.4712 22.138C38.3462 22.263 38.1767 22.3333 37.9999 22.3333H25.9999C25.8231 22.3333 25.6535 22.2631 25.5285 22.1381C25.4035 22.013 25.3333 21.8435 25.3333 21.6667Z" fill="white"/>

    
    
    
    <defs>

      
      
      
      <filter id="filter0_d_838_612" x="0.833105" y="0.435758" width="62.3345" height="72.5334" filterUnits="userSpaceOnUse" color-interpolation-filters="sRGB">

        
        
        
        <feFlood flood-opacity="0" result="BackgroundImageFix"/>

        
        
        
        <feColorMatrix in="SourceAlpha" type="matrix" values="0 0 0 0 0 0 0 0 0 0 0 0 0 0 0 0 0 0 127 0" result="hardAlpha"/>

        
        
        
        <feOffset dy="11.7024"/>

        
        
        
        <feGaussianBlur stdDeviation="8.8"/>

        
        
        
        <feComposite in2="hardAlpha" operator="out"/>

        
        
        
        <feColorMatrix type="matrix" values="0 0 0 0 0 0 0 0 0 0.338782 0 0 0 0 0.725962 0 0 0 0.2 0"/>

        
        
        
        <feBlend mode="normal" in2="BackgroundImageFix" result="effect1_dropShadow_838_612"/>

        
        
        
        <feBlend mode="normal" in="SourceGraphic" in2="effect1_dropShadow_838_612" result="shape"/>
</filter>

        
        
        
        <linearGradient id="paint0_linear_838_612" x1="27.5" y1="40" x2="32.714" y2="9.42794" gradientUnits="userSpaceOnUse">

          
          
          
          <stop stop-color="#6696FF"/>

          
          
          
          <stop offset="1" stop-color="#7CB1FF"/>
</linearGradient>
</defs>
</svg>