<svg width="39" height="39" viewBox="0 0 39 39" fill="none" xmlns="http://www.w3.org/2000/svg">
<path d="M20.9112 11.9929C20.5717 11.7866 20.1838 11.6734 19.7867 11.6646C19.3896 11.6558 18.9971 11.7517 18.6488 11.9427C18.63 11.9553 18.6112 11.9615 18.5924 11.9741L14.3873 14.6814H12.9397C11.5923 14.6814 10.4956 15.7781 10.4956 17.1254V22.4523C10.4956 23.1022 10.7538 23.7254 11.2133 24.1849C11.6728 24.6445 12.2961 24.9026 12.946 24.9026H14.3936L18.5924 27.6413C18.6112 27.6538 18.6363 27.6663 18.6551 27.6789C18.9998 27.8669 19.3695 27.9546 19.7455 27.9546C20.1529 27.9546 20.5539 27.8418 20.9237 27.6287C21.6632 27.1901 22.1081 26.3942 22.1081 25.5043V14.1173C22.0956 13.2337 21.6507 12.4378 20.9112 11.9929ZM24.6901 17.6707C24.9721 18.3663 25.1162 19.1058 25.1162 19.8703C25.1162 20.5221 25.0097 21.155 24.8029 21.7629C24.6776 22.1264 24.3391 22.352 23.9757 22.352C23.8817 22.352 23.7877 22.3332 23.6937 22.3019C23.5849 22.265 23.4846 22.207 23.3983 22.1312C23.3121 22.0554 23.2416 21.9634 23.1909 21.8604C23.1403 21.7573 23.1105 21.6453 23.1032 21.5307C23.0959 21.4162 23.1113 21.3013 23.1484 21.1926C23.2926 20.7665 23.3678 20.3216 23.3678 19.8641C23.3678 19.3251 23.2675 18.8112 23.067 18.3224C22.8852 17.8712 23.0983 17.3636 23.5495 17.1818C24.0007 17.0064 24.5083 17.2194 24.6901 17.6707ZM26.896 15.3143C26.6579 14.8944 26.1189 14.744 25.6991 14.9822C25.2792 15.2203 25.1288 15.753 25.3669 16.1791C25.9497 17.2069 26.2693 18.5167 26.2693 19.8703C26.2693 21.0422 26.0375 22.164 25.5863 23.1228C25.3857 23.5615 25.5737 24.0817 26.0124 24.2885C26.1169 24.3371 26.23 24.3646 26.3451 24.3695C26.4603 24.3743 26.5753 24.3565 26.6835 24.3169C26.7918 24.2773 26.8911 24.2168 26.976 24.1388C27.0609 24.0608 27.1295 23.9669 27.178 23.8623C27.7295 22.6779 28.0241 21.2929 28.0241 19.8703C28.0303 18.1971 27.6355 16.6241 26.896 15.3143Z" fill="#8A919D"/>
</svg>
