<svg width="24" height="24" viewBox="0 0 24 24" fill="none" xmlns="http://www.w3.org/2000/svg">
<path d="M0 8C0 3.58172 3.58172 0 8 0H16C20.4183 0 24 3.58172 24 8V16C24 20.4183 20.4183 24 16 24H8C3.58172 24 0 20.4183 0 16V8Z" fill="#649FFE"/>
<path d="M9.70727 10.5802C9.71442 10.5783 9.72062 10.5752 9.72605 10.5711C9.83361 10.531 9.94338 10.4844 10.0511 10.4363C12.7893 9.21578 13.2056 7.18544 13.2056 7.18544C13.2056 7.18544 14.1429 8.2848 14.6549 9.45502C14.6699 9.49127 14.6871 9.527 14.7021 9.56322C14.7036 9.56737 14.7047 9.57152 14.7067 9.57512C14.6171 11.0504 14.352 12.2207 13.7105 12.958C13.566 13.1238 13.4899 13.3004 13.4583 13.478C17.7536 14.9501 17.3234 11.9157 17.3234 11.9157C17.3234 11.9157 16.8174 12.9513 16.2996 11.9157C16.0231 11.3626 16.2996 10.0453 15.7574 7.97409C15.1728 5.74077 13.4998 4.86719 12.1447 4.86719C10.7895 4.86719 9.09214 5.73455 8.53189 7.97409C8.01405 10.0454 8.29058 11.3627 8.01405 11.9157C7.4962 12.9513 6.9665 11.9157 6.9665 11.9157C6.9665 11.9157 6.53466 14.9594 10.8542 13.4696C10.8211 13.2947 10.7455 13.1211 10.6036 12.9576C10.1158 12.3983 9.84864 11.5838 9.70728 10.5802L9.70727 10.5802ZM17.6843 15.8438C17.0676 15.3151 15.6135 15.2287 14.7492 15.2204C14.7492 15.2204 13.71 18.3309 12.1565 18.3309C10.6031 18.3309 9.56384 15.2204 9.56384 15.2204C8.69959 15.2291 7.24545 15.3151 6.62875 15.8438C5.78831 16.5661 5.39258 18.8487 5.39258 18.8487H18.9205C18.9205 18.8487 18.5247 16.5661 17.6843 15.8438Z" fill="#E7F0FF"/>
</svg>
