<svg width="22" height="25" viewBox="0 0 22 25" fill="none" xmlns="http://www.w3.org/2000/svg">
<path fill-rule="evenodd" clip-rule="evenodd" d="M7.48545 0.18051C7.36511 0.285812 7.30493 0.436241 7.30493 0.601715V7.70206C7.30493 7.94275 7.45536 8.15338 7.66597 8.24364C7.89161 8.3339 8.14735 8.3038 8.31282 8.13832L10.4189 6.21281C10.6595 6.00221 11.0055 6.00221 11.2462 6.21281L13.3523 8.15338C13.5177 8.30381 13.7735 8.34891 13.9991 8.25865C14.2248 8.15335 14.3601 7.94275 14.3601 7.70206V0.601715C14.3601 0.436241 14.3 0.285812 14.1796 0.18051C14.0743 0.0601651 13.9089 0 13.7584 0H7.90666C7.74118 0 7.59075 0.0601651 7.48545 0.18051ZM16.8182 0.105313C16.6527 0.0902696 16.4872 0.150451 16.3519 0.255753C16.2315 0.376098 16.1563 0.541554 16.1563 0.707028V7.9277C16.1563 8.84533 15.6147 9.6727 14.7723 10.0488C13.945 10.4098 12.9672 10.2443 12.2902 9.62758L11.2372 8.66484C11.0116 8.45424 10.6505 8.45424 10.4249 8.66484L9.37185 9.62758C8.69491 10.2443 7.70207 10.3948 6.85966 10.0187C6.01724 9.64264 5.47569 8.81526 5.47569 7.89763V0.676958C5.47569 0.496441 5.40047 0.345982 5.28013 0.225637C5.15978 0.105293 4.97927 0.0601541 4.81379 0.0751972C1.47423 0.511447 0 2.76793 0 6.01724V18.0517C0 21.6621 1.80517 24.069 6.01724 24.069H15.6448C19.8569 24.069 21.6621 21.6621 21.6621 18.0517V6.00218C21.6621 2.75287 20.2179 0.496435 16.8483 0.0601853H16.7129L16.8182 0.105313ZM12.3355 13.5388C11.8391 13.5388 11.4329 13.945 11.4329 14.4414C11.4329 14.9378 11.8391 15.344 12.3355 15.344H17.4502C17.9466 15.344 18.3527 14.9378 18.3527 14.4414C18.3527 13.945 17.9466 13.5388 17.4502 13.5388H12.3355ZM7.22069 18.3526C6.72427 18.3526 6.3181 18.7587 6.3181 19.2552C6.3181 19.7516 6.72427 20.1577 7.22069 20.1577H17.45C17.9464 20.1577 18.3526 19.7516 18.3526 19.2552C18.3526 18.7587 17.9464 18.3526 17.45 18.3526H7.22069Z" fill="#2262FB"/>
</svg>
