<svg width="39" height="39" viewBox="0 0 39 39" fill="none" xmlns="http://www.w3.org/2000/svg">
<path d="M19.9109 24.9567C19.6315 24.9254 19.4203 24.6891 19.4203 24.4079C19.4203 24.1267 19.6315 23.8905 19.9109 23.8591H26.8472C27.1266 23.8905 27.3378 24.1267 27.3378 24.4079C27.3378 24.6891 27.1266 24.9254 26.8472 24.9567H19.9109ZM18.1022 27.1521C17.8228 27.1208 17.6115 26.8845 17.6115 26.6033C17.6115 26.3222 17.8227 26.0859 18.1022 26.0545H26.8472C27.1266 26.0859 27.3378 26.3222 27.3378 26.6033C27.3378 26.8845 27.1266 27.1208 26.8472 27.1521H18.1022ZM11.1562 24.6106C11.1562 23.9365 11.4214 23.3012 11.899 22.8236L15.658 19.0691L15.6328 18.9983C15.3997 18.3447 15.2809 17.6592 15.2832 16.9645C15.2855 13.6236 18.0071 10.9089 21.3479 10.9111C22.1798 10.9111 22.9887 11.0802 23.752 11.4116L23.9873 11.5144C23.9988 11.5236 24.0102 11.5304 24.0239 11.535C24.0581 11.5487 24.0902 11.567 24.1153 11.5944C24.161 11.6401 24.1861 11.7018 24.1861 11.768C24.1861 11.8344 24.161 11.896 24.113 11.9417C24.1019 11.9532 24.0926 11.9663 24.0856 11.9806L20.6282 15.4312L22.8767 17.6843L26.4073 14.1606C26.4164 14.1561 26.4233 14.1492 26.4302 14.1423C26.448 14.1244 26.4692 14.1101 26.4925 14.1004C26.5158 14.0907 26.5408 14.0857 26.5661 14.0857C26.5914 14.0857 26.6164 14.0907 26.6397 14.1004C26.6631 14.1101 26.6843 14.1244 26.7021 14.1423C26.7203 14.1606 26.7341 14.1789 26.7432 14.2017L26.7661 14.252L26.9032 14.5697C27.2322 15.3328 27.3991 16.1418 27.3991 16.9737C27.3968 20.3145 24.6752 23.0292 21.3343 23.027C20.6374 23.027 19.9518 22.9081 19.3005 22.6728L19.2296 22.6477L15.4683 26.4021C14.4812 27.387 12.8792 27.3847 11.8944 26.3998C11.4168 25.9223 11.1562 25.287 11.1562 24.6106Z" fill="#026BFF"/>
</svg>
