<svg width="39" height="39" viewBox="0 0 39 39" fill="none" xmlns="http://www.w3.org/2000/svg">
<path d="M19.9111 25.7526C19.6318 25.7213 19.4205 25.485 19.4205 25.2038C19.4205 24.9226 19.6317 24.6864 19.9111 24.655H26.8474C27.1268 24.6864 27.3381 24.9226 27.3381 25.2038C27.3381 25.485 27.1268 25.7213 26.8474 25.7526H19.9111ZM18.1024 27.948C17.823 27.9166 17.6117 27.6804 17.6117 27.3992C17.6117 27.1181 17.823 26.8818 18.1024 26.8504H26.8474C27.1268 26.8818 27.3381 27.1181 27.3381 27.3992C27.3381 27.6804 27.1268 27.9166 26.8474 27.948H18.1024ZM11.1565 25.4065C11.1565 24.7324 11.4216 24.0971 11.8992 23.6195L15.6582 19.865L15.6331 19.7942C15.4 19.1406 15.2812 18.4551 15.2835 17.7604C15.2858 14.4195 18.0073 11.7048 21.3482 11.707C22.1801 11.707 22.989 11.8761 23.7522 12.2075L23.9876 12.3103C23.999 12.3195 24.0104 12.3263 24.0242 12.3309C24.0584 12.3446 24.0904 12.3629 24.1156 12.3903C24.1612 12.436 24.1864 12.4977 24.1864 12.5639C24.1864 12.6303 24.1613 12.6919 24.1133 12.7376C24.1021 12.7491 24.0929 12.7622 24.0858 12.7765L20.6284 16.2271L22.877 18.4802L26.4076 14.9565C26.4166 14.952 26.4235 14.9451 26.4304 14.9382C26.4482 14.9203 26.4694 14.906 26.4927 14.8963C26.5161 14.8866 26.5411 14.8816 26.5664 14.8816C26.5916 14.8816 26.6167 14.8866 26.64 14.8963C26.6633 14.906 26.6845 14.9203 26.7023 14.9382C26.7206 14.9565 26.7343 14.9748 26.7434 14.9976L26.7664 15.0479L26.9034 15.3656C27.2325 16.1287 27.3993 16.9377 27.3993 17.7696C27.397 21.1104 24.6754 23.8251 21.3345 23.8229C20.6376 23.8229 19.9521 23.704 19.3007 23.4687L19.2299 23.4436L15.4686 27.198C14.4814 28.1829 12.8795 28.1806 11.8946 27.1957C11.417 26.7182 11.1565 26.0829 11.1565 25.4065Z" fill="#8A919D"/>
</svg>
