<svg width="24" height="24" viewBox="0 0 24 24" fill="none" xmlns="http://www.w3.org/2000/svg">
<path d="M0 8C0 3.58172 3.58172 0 8 0H16C20.4183 0 24 3.58172 24 8V16C24 20.4183 20.4183 24 16 24H8C3.58172 24 0 20.4183 0 16V8Z" fill="#649FFE"/>
<path d="M18 18.0009H5.5C5.36739 18.0009 5.24021 17.9483 5.14645 17.8545C5.05268 17.7607 5 17.6335 5 17.5009V10.5009C5 10.3683 5.05268 10.2412 5.14645 10.1474C5.24021 10.0536 5.36739 10.0009 5.5 10.0009H6C6.13261 10.0009 6.25979 10.0536 6.35355 10.1474C6.44732 10.2412 6.5 10.3683 6.5 10.5009V12.0009H8V8.35094H8.021C8.04823 8.25088 8.10589 8.16177 8.186 8.09594L11.739 5.21494C11.8117 5.15189 11.9048 5.11719 12.001 5.11719C12.0972 5.11719 12.1903 5.15189 12.263 5.21494L15.817 8.09594C15.8974 8.16137 15.9548 8.25068 15.981 8.35094H16.002V12.0009H17.502V10.5009C17.502 10.3683 17.5547 10.2412 17.6484 10.1474C17.7422 10.0536 17.8694 10.0009 18.002 10.0009H18.502C18.6346 10.0009 18.7618 10.0536 18.8556 10.1474C18.9493 10.2412 19.002 10.3683 19.002 10.5009V17.5009C19.002 17.6335 18.9493 17.7607 18.8556 17.8545C18.7618 17.9483 18.6346 18.0009 18.502 18.0009H18ZM11.251 14.5359V16.5359C11.251 16.6685 11.3037 16.7957 11.3974 16.8895C11.4912 16.9833 11.6184 17.0359 11.751 17.0359H12.251C12.3836 17.0359 12.5108 16.9833 12.6046 16.8895C12.6983 16.7957 12.751 16.6685 12.751 16.5359V14.5359C12.751 14.4033 12.6983 14.2762 12.6046 14.1824C12.5108 14.0886 12.3836 14.0359 12.251 14.0359H11.751C11.6853 14.0358 11.6201 14.0486 11.5594 14.0737C11.4986 14.0988 11.4433 14.1356 11.3968 14.182C11.3503 14.2285 11.3133 14.2836 11.2882 14.3444C11.263 14.4051 11.25 14.4702 11.25 14.5359H11.251Z" fill="#E7F0FF"/>
</svg>
