<svg width="21" height="20" viewBox="0 0 21 20" fill="none" xmlns="http://www.w3.org/2000/svg">
<path fill-rule="evenodd" clip-rule="evenodd" d="M19.2513 9.74985C19.2513 4.60735 15.0889 0.444946 9.95969 0.444946C4.81719 0.444946 0.654785 4.60735 0.654785 9.74985C0.654785 14.8803 4.81719 19.0426 9.95969 19.0426C15.0889 19.0426 19.2513 14.8803 19.2513 9.74985ZM9.95245 17.6814C5.57346 17.6814 2.01485 14.1361 2.01485 9.74379C2.01485 5.36359 5.57346 1.8062 9.95245 1.8062C14.3327 1.8183 17.89 5.36359 17.89 9.74379C17.89 14.1361 14.346 17.6814 9.95245 17.6814ZM19.97 19.7602C20.2362 19.494 20.2362 19.0584 19.97 18.7922L18.155 16.9772C17.8767 16.7231 17.4654 16.7352 17.1992 16.9893C16.9451 17.2555 16.9329 17.6669 17.187 17.9452L19.002 19.7602C19.1351 19.8812 19.3045 19.9538 19.486 19.9538C19.6675 19.9538 19.8369 19.8812 19.97 19.7602Z" fill="#8593A7"/>
</svg>
