<svg width="39" height="39" viewBox="0 0 39 39" fill="none" xmlns="http://www.w3.org/2000/svg">
<path d="M25.661 19.2955C27.4281 19.2955 28.8453 17.8679 28.8453 16.1009C28.8453 14.3338 27.4281 12.9062 25.661 12.9062C25.3189 12.9062 24.9897 12.9603 24.6913 13.0554C25.2983 13.9171 25.6507 14.9614 25.6507 16.1009C25.6507 17.2403 25.288 18.2743 24.6913 19.1463C24.9922 19.2415 25.3215 19.2955 25.661 19.2955ZM20.3366 19.2955C22.1037 19.2955 23.521 17.8679 23.521 16.1009C23.521 14.3338 22.1037 12.9062 20.3366 12.9062C18.5696 12.9062 17.142 14.3338 17.142 16.1009C17.142 17.8679 18.5696 19.2955 20.3366 19.2955ZM27.3869 21.595C28.2717 22.3718 28.8556 23.3621 28.8556 24.6199V26.7496H32.0502V24.6199C32.0528 22.9814 29.5295 21.968 27.3869 21.595ZM20.3366 21.4252C18.2069 21.4252 13.9474 22.4901 13.9474 24.6199V26.7496H26.7284V24.6199C26.7284 22.4901 22.4664 21.4252 20.3366 21.4252Z" fill="#026BFF"/>
<path d="M10.7766 17.7031L10.7766 21.9532" stroke="#026BFF" stroke-width="1.5" stroke-linecap="round"/>
<path d="M8.65161 19.8281L12.9017 19.8281" stroke="#026BFF" stroke-width="1.5" stroke-linecap="round"/>
</svg>
