<svg width="22" height="25" viewBox="0 0 22 25" fill="none" xmlns="http://www.w3.org/2000/svg">
<path fill-rule="evenodd" clip-rule="evenodd" d="M1.89543 4.6295C0.722066 5.30644 0 6.55505 0 7.90893V16.1525C0.0150431 17.5064 0.73711 18.755 1.89543 19.432L9.0409 23.5538C10.2143 24.2307 11.6584 24.2307 12.8318 23.5538L19.9772 19.432C21.1506 18.755 21.8727 17.5064 21.8727 16.1525V7.90893C21.8576 6.55505 21.1356 5.32148 19.9772 4.6295L12.8318 0.507705C11.6434 -0.169235 10.1992 -0.169235 9.02586 0.507705L1.89543 4.6295ZM8.93515 11.2064C8.13787 10.394 7.89718 9.19059 8.33343 8.15261C8.78472 7.09959 9.80765 6.42266 10.9359 6.42266C12.4853 6.43771 13.7189 7.68626 13.7339 9.22066C13.7339 10.3639 13.0419 11.3869 12.0039 11.8231C10.9509 12.2443 9.74748 12.0036 8.93515 11.2064ZM6.69869 15.7433C6.44296 16.1194 6.41287 16.6008 6.62348 17.007C6.84912 17.3981 7.25529 17.6538 7.70658 17.6388H14.145C14.5963 17.6538 15.0175 17.3981 15.2281 17.007C15.4538 16.6008 15.4237 16.1194 15.168 15.7433C14.1751 14.4196 12.5956 13.6674 10.9408 13.7126C9.28611 13.6674 7.69154 14.4196 6.69869 15.7433Z" fill="#8593A7"/>
</svg>
