<svg width="39" height="39" viewBox="0 0 39 39" fill="none" xmlns="http://www.w3.org/2000/svg">
<path d="M25.6609 18.4996C27.428 18.4996 28.8452 17.072 28.8452 15.305C28.8452 13.5379 27.428 12.1104 25.6609 12.1104C25.3188 12.1104 24.9895 12.1644 24.6912 12.2595C25.2982 13.1212 25.6506 14.1655 25.6506 15.305C25.6506 16.4444 25.2879 17.4784 24.6912 18.3504C24.9921 18.4456 25.3214 18.4996 25.6609 18.4996ZM20.3365 18.4996C22.1036 18.4996 23.5208 17.072 23.5208 15.305C23.5208 13.5379 22.1036 12.1104 20.3365 12.1104C18.5694 12.1104 17.1419 13.5379 17.1419 15.305C17.1419 17.072 18.5694 18.4996 20.3365 18.4996ZM27.3868 20.7991C28.2716 21.5759 28.8555 22.5662 28.8555 23.824V25.9537H32.0501V23.824C32.0527 22.1855 29.5294 21.1721 27.3868 20.7991ZM20.3365 20.6293C18.2068 20.6293 13.9473 21.6942 13.9473 23.824V25.9537H26.7283V23.824C26.7283 21.6942 22.4663 20.6293 20.3365 20.6293Z" fill="#8A919D"/>
<path d="M10.7769 16.9072L10.7769 21.1573" stroke="#8A919D" stroke-width="1.5" stroke-linecap="round"/>
<path d="M8.65186 19.0322L12.9019 19.0322" stroke="#8A919D" stroke-width="1.5" stroke-linecap="round"/>
</svg>
