<svg width="24" height="24" viewBox="0 0 24 24" fill="none" xmlns="http://www.w3.org/2000/svg">
<path d="M0 8C0 3.58172 3.58172 0 8 0H16C20.4183 0 24 3.58172 24 8V16C24 20.4183 20.4183 24 16 24H8C3.58172 24 0 20.4183 0 16V8Z" fill="#649FFE"/>
<path d="M8.5823 18C8.22638 18 7.87821 17.8529 7.61514 17.5896L6.4004 16.3739C5.86653 15.8397 5.86653 14.9647 6.4004 14.4226L7.55325 13.2689C7.81631 13.0056 8.15675 12.8663 8.52814 12.8663C8.89952 12.8663 9.23996 13.0134 9.50303 13.2689L10.2303 13.9968L10.2767 13.9813C12.3348 13.2147 13.2092 12.3475 13.9829 10.2568V10.2413L13.2633 9.51347C12.7294 8.97919 12.7217 8.10421 13.2633 7.56219L14.4239 6.40071C14.9578 5.86643 15.8321 5.86643 16.3737 6.40071L17.5884 7.61639C17.9056 7.93386 18.0527 8.37522 17.983 8.8011C17.6348 10.9382 16.4975 13.0598 14.7798 14.7711C13.0621 16.4901 10.9421 17.6283 8.80668 17.9768C8.73704 17.9845 8.66741 17.9923 8.59777 17.9923L8.5823 18Z" fill="#E7F0FF"/>
</svg>
