<svg width="24" height="25" viewBox="0 0 24 25" fill="none" xmlns="http://www.w3.org/2000/svg">
<path d="M0 8.875C0 4.45672 3.58172 0.875 8 0.875H16C20.4183 0.875 24 4.45672 24 8.875V16.875C24 21.2933 20.4183 24.875 16 24.875H8C3.58172 24.875 0 21.2933 0 16.875V8.875Z" fill="#649FFE"/>
<path d="M7.45965 6.5H16.6263C16.8473 6.5 17.0593 6.5878 17.2156 6.74408C17.3718 6.90036 17.4596 7.11232 17.4596 7.33333V18.1667C17.4596 18.3877 17.3718 18.5996 17.2156 18.7559C17.0593 18.9122 16.8473 19 16.6263 19H7.45965C7.23863 19 7.02667 18.9122 6.87039 18.7559C6.71411 18.5996 6.62631 18.3877 6.62631 18.1667V7.33333C6.62631 7.11232 6.71411 6.90036 6.87039 6.74408C7.02667 6.5878 7.23863 6.5 7.45965 6.5ZM12.043 18.1667C12.1524 18.1667 12.2608 18.1451 12.3619 18.1033C12.463 18.0614 12.5549 18 12.6323 17.9226C12.7097 17.8453 12.7711 17.7534 12.813 17.6523C12.8549 17.5512 12.8764 17.4428 12.8764 17.3333C12.8764 17.2239 12.8549 17.1155 12.813 17.0144C12.7711 16.9133 12.7097 16.8214 12.6323 16.744C12.5549 16.6666 12.463 16.6053 12.3619 16.5634C12.2608 16.5215 12.1524 16.5 12.043 16.5C11.822 16.5 11.6101 16.5878 11.4538 16.7441C11.2976 16.9004 11.2098 17.1123 11.2098 17.3333C11.2098 17.5543 11.2976 17.7663 11.4538 17.9225C11.6101 18.0788 11.822 18.1666 12.043 18.1667ZM8.70965 8.16667C8.65493 8.16667 8.60075 8.17744 8.55019 8.19838C8.49964 8.21932 8.45371 8.25001 8.41502 8.28871C8.37633 8.3274 8.34564 8.37333 8.3247 8.42388C8.30376 8.47443 8.29298 8.52862 8.29298 8.58333V14.8333C8.29298 14.8881 8.30376 14.9422 8.3247 14.9928C8.34564 15.0433 8.37633 15.0893 8.41502 15.128C8.45371 15.1667 8.49964 15.1973 8.55019 15.2183C8.60075 15.2392 8.65493 15.25 8.70965 15.25H15.3763C15.431 15.25 15.4852 15.2392 15.5358 15.2183C15.5863 15.1973 15.6322 15.1667 15.6709 15.128C15.7096 15.0893 15.7403 15.0433 15.7613 14.9928C15.7822 14.9422 15.793 14.8881 15.793 14.8333V8.58333C15.793 8.52862 15.7822 8.47443 15.7613 8.42388C15.7403 8.37333 15.7096 8.3274 15.6709 8.28871C15.6322 8.25001 15.5863 8.21932 15.5358 8.19838C15.4852 8.17744 15.431 8.16667 15.3763 8.16667H8.70965Z" fill="white"/>
</svg>
