<svg width="25" height="25" viewBox="0 0 25 25" fill="none" xmlns="http://www.w3.org/2000/svg">
<path d="M0.0429688 8.875C0.0429688 4.45672 3.62469 0.875 8.04297 0.875H16.043C20.4612 0.875 24.043 4.45672 24.043 8.875V16.875C24.043 21.2933 20.4612 24.875 16.043 24.875H8.04297C3.62469 24.875 0.0429688 21.2933 0.0429688 16.875V8.875Z" fill="#659BFE"/>
<path d="M16.289 11.3138H9.9753V8.97493C9.9753 8.20029 10.9178 7.33829 12.0794 7.33829C13.2414 7.33829 14.185 8.20029 14.185 8.97493V9.67693H14.1932C14.221 9.87165 14.3182 10.0498 14.4668 10.1787C14.6154 10.3075 14.8055 10.3785 15.0022 10.3785C15.4154 10.3785 15.7556 10.0737 15.8126 9.67693H15.8219V8.97501C15.8219 7.16701 14.1456 5.70117 12.0795 5.70117C10.0136 5.70117 8.33786 7.16701 8.33786 8.97501V11.3138H7.86978C7.09554 11.3138 6.46738 11.9421 6.46738 12.7168V18.3296C6.46738 19.1043 7.09554 19.7323 7.86978 19.7323H16.289C17.0643 19.7323 17.6919 19.1043 17.6919 18.3296V12.7168C17.6919 11.9421 17.0643 11.3138 16.289 11.3138ZM12.7815 16.4938V17.1335C12.7815 17.5353 12.4671 17.8608 12.0794 17.8608C11.6926 17.8608 11.3777 17.5353 11.3777 17.1335V16.4939C10.8251 16.2349 10.4419 15.6787 10.4419 15.0341C10.4419 14.1416 11.1757 13.4179 12.0794 13.4179C12.984 13.4179 13.7168 14.1416 13.7168 15.0341C13.7168 15.6786 13.3346 16.2349 12.7815 16.4939V16.4938Z" fill="white"/>
</svg>
