<svg width="48" height="44" viewBox="0 0 48 44" fill="none" xmlns="http://www.w3.org/2000/svg">
<path d="M4.79994 33.448C4.79115 34.548 5.21963 35.6064 5.99113 36.3904C6.76264 37.1745 7.81398 37.62 8.91394 37.629H16.6229C17.2178 37.6279 17.8054 37.497 18.3444 37.2453C18.8835 36.9937 19.3611 36.6274 19.7439 36.172L21.7439 33.801C22.1268 33.3456 22.6044 32.9793 23.1435 32.7277C23.6825 32.476 24.27 32.3451 24.8649 32.344H39.7649C40.8649 32.335 41.9162 31.8895 42.6877 31.1054C43.4592 30.3214 43.8877 29.263 43.8789 28.163V4.181C43.8877 3.08104 43.4592 2.02264 42.6877 1.23857C41.9162 0.454499 40.8649 0.00898122 39.7649 0H8.91394C7.81398 0.00898122 6.76264 0.454499 5.99113 1.23857C5.21963 2.02264 4.79115 3.08104 4.79994 4.181V33.448Z" fill="#2F51FF"/>
<path d="M0.000161008 10.571C-0.0110212 9.10478 0.560663 7.69416 1.58947 6.64941C2.61827 5.60466 4.01994 5.01136 5.48616 5L14.6002 5C15.3149 5.00107 16.0224 5.14292 16.6823 5.41745C17.3422 5.69198 17.9416 6.09381 18.4462 6.6L20.7302 8.88C21.2348 9.38619 21.8341 9.78802 22.494 10.0625C23.1539 10.3371 23.8614 10.4789 24.5762 10.48H42.5142C43.9799 10.4914 45.3811 11.0843 46.4098 12.1283C47.4385 13.1724 48.0105 14.5823 48.0002 16.048V38.428C48.0058 39.1541 47.8684 39.8742 47.5958 40.5472C47.3232 41.2201 46.9206 41.8328 46.4112 42.3502C45.9018 42.8676 45.2954 43.2797 44.6268 43.5627C43.9581 43.8458 43.2402 43.9944 42.5142 44H5.48616C4.01994 43.9886 2.61827 43.3953 1.58947 42.3506C0.560663 41.3058 -0.0110212 39.8952 0.000161008 38.429V10.571Z" fill="url(#paint0_linear_582_157)"/>
<path d="M18.1925 27.8971C17.9314 27.8973 17.6761 27.8209 17.458 27.6774C17.24 27.5339 17.0688 27.3295 16.9658 27.0897C16.8627 26.8498 16.8323 26.585 16.8783 26.3281C16.9243 26.0711 17.0446 25.8333 17.2245 25.6441L23.2915 19.2501C23.4196 19.1149 23.5739 19.0073 23.7449 18.9337C23.916 18.8602 24.1003 18.8223 24.2865 18.8223C24.4727 18.8223 24.6569 18.8602 24.828 18.9337C24.9991 19.0073 25.1534 19.1149 25.2815 19.2501L31.3485 25.6431C31.5283 25.8323 31.6487 26.0701 31.6947 26.3271C31.7406 26.584 31.7102 26.8488 31.6072 27.0887C31.5041 27.3285 31.333 27.5329 31.1149 27.6764C30.8969 27.8199 30.6415 27.8963 30.3805 27.8961H27.9605C27.7785 27.8961 27.604 27.9683 27.4754 28.097C27.3467 28.2256 27.2745 28.4001 27.2745 28.5821V31.2301C27.2746 31.4102 27.2392 31.5886 27.1704 31.755C27.1016 31.9215 27.0006 32.0727 26.8733 32.2002C26.7459 32.3276 26.5948 32.4287 26.4284 32.4976C26.262 32.5666 26.0836 32.6021 25.9035 32.6021H22.6695C22.3059 32.6021 21.9571 32.4576 21.7 32.2005C21.4429 31.9434 21.2985 31.5947 21.2985 31.2311V28.5821C21.2985 28.4001 21.2262 28.2256 21.0975 28.097C20.9689 27.9683 20.7944 27.8961 20.6125 27.8961L18.1925 27.8971Z" fill="white" fill-opacity="0.9"/>
<defs>
<linearGradient id="paint0_linear_582_157" x1="-3.84002" y1="-15.475" x2="17.3843" y2="56.0265" gradientUnits="userSpaceOnUse">
<stop stop-color="#8FC6FE"/>
<stop offset="1" stop-color="#2F51FF"/>
</linearGradient>
</defs>
</svg>
