<svg width="32" height="32" viewBox="0 0 32 32" fill="none" xmlns="http://www.w3.org/2000/svg">
<path d="M11.916 18.2464C11.916 20.579 12.8427 22.8161 14.4921 24.4655C16.1415 26.1149 18.3786 27.0416 20.7112 27.0416C23.0438 27.0416 25.2809 26.1149 26.9304 24.4655C28.5798 22.8161 29.5064 20.579 29.5064 18.2464C29.5064 15.9137 28.5798 13.6766 26.9304 12.0272C25.2809 10.3778 23.0438 9.45117 20.7112 9.45117C18.3786 9.45117 16.1415 10.3778 14.4921 12.0272C12.8427 13.6766 11.916 15.9137 11.916 18.2464Z" fill="#D8E0E5"/>
<path d="M25.0201 26.2446H21.9129C21.3833 26.2446 20.9529 25.8142 20.9529 25.2846C20.9529 24.755 21.3833 24.3246 21.9129 24.3246H25.0201C27.4329 24.3246 29.3961 22.3614 29.3961 19.9486C29.3961 17.5358 27.4329 15.5726 25.0201 15.5726H24.8633C24.3401 15.5726 23.9129 15.1534 23.9033 14.6302C23.8233 10.3918 20.3097 6.94379 16.0713 6.94379C11.8329 6.94379 8.32092 10.3934 8.24092 14.6318C8.23623 14.8833 8.13303 15.1229 7.95351 15.2992C7.77399 15.4754 7.53249 15.5742 7.28093 15.5742H7.12413C4.71132 15.5742 2.74813 17.5374 2.74813 19.9502C2.74813 22.363 4.71132 24.3262 7.12413 24.3262H9.96253C10.4921 24.3262 10.9225 24.7566 10.9225 25.2862C10.9225 25.8158 10.4921 26.2462 9.96253 26.2462H7.12413C3.65213 26.2462 0.828125 23.4222 0.828125 19.9502C0.828125 16.731 3.25693 14.0686 6.37853 13.6974C6.62333 11.4718 7.62012 9.41099 9.23612 7.82219C11.0713 6.01899 13.4985 5.02539 16.0713 5.02539C18.6441 5.02539 21.0713 6.01899 22.9065 7.82219C24.5225 9.41099 25.5193 11.4718 25.7641 13.6974C28.8857 14.067 31.3145 16.7294 31.3145 19.9502C31.3161 23.4206 28.4921 26.2446 25.0201 26.2446Z" fill="#003EA5"/>
<path d="M20.1579 19.8418L16.7451 16.4674C16.5649 16.2897 16.3219 16.1901 16.0687 16.1904C15.8156 16.1907 15.5729 16.2908 15.3931 16.469L11.9947 19.8434C11.9052 19.9323 11.834 20.0379 11.7854 20.1543C11.7367 20.2707 11.7114 20.3955 11.7109 20.5216C11.7105 20.6478 11.7349 20.7727 11.7828 20.8895C11.8306 21.0062 11.901 21.1123 11.9899 21.2018C12.0788 21.2913 12.1844 21.3624 12.3008 21.4111C12.4171 21.4598 12.5419 21.4851 12.6681 21.4855C12.7942 21.486 12.9192 21.4616 13.0359 21.4137C13.1526 21.3659 13.2588 21.2955 13.3483 21.2066L15.1179 19.4498V26.6738C15.1179 27.2034 15.5483 27.6338 16.0779 27.6338C16.6075 27.6338 17.0379 27.2034 17.0379 26.6738V19.4578L18.8091 21.2082C18.8988 21.2969 19.0051 21.3671 19.1219 21.4147C19.2387 21.4623 19.3638 21.4864 19.4899 21.4856C19.6161 21.4849 19.7408 21.4593 19.8571 21.4103C19.9734 21.3614 20.0788 21.29 20.1675 21.2002C20.346 21.0186 20.4452 20.7737 20.4434 20.519C20.4416 20.2644 20.339 20.0209 20.1579 19.8418Z" fill="#003EA5"/>
</svg>
