<svg width="24" height="24" viewBox="0 0 24 24" fill="none" xmlns="http://www.w3.org/2000/svg">
<g clip-path="url(#clip0_37_1954)">
<path d="M0 8C0 3.58172 3.58172 0 8 0H16C20.4183 0 24 3.58172 24 8V16C24 20.4183 20.4183 24 16 24H8C3.58172 24 0 20.4183 0 16V8Z" fill="#649FFE"/>
<path d="M15.9984 8.0016C15.9974 8.7922 15.7621 9.56478 15.3222 10.2217C14.8823 10.8786 14.2575 11.3903 13.5268 11.6922C12.7961 11.9941 11.9923 12.0726 11.217 11.9178C10.4417 11.763 9.72972 11.3818 9.17101 10.8224C8.61231 10.263 8.23197 9.55057 8.07808 8.77509C7.92419 7.9996 8.00365 7.19591 8.30642 6.46557C8.60919 5.73524 9.12168 5.11106 9.77911 4.67192C10.4365 4.23278 11.2094 3.9984 12 3.9984C12.5257 3.99777 13.0463 4.10092 13.532 4.30193C14.0177 4.50295 14.4589 4.79787 14.8304 5.16979C15.2019 5.54171 15.4963 5.98331 15.6967 6.46926C15.8971 6.95521 15.9997 7.47594 15.9984 8.0016ZM3.9984 18.6672C3.9984 15.9984 9.3312 14.5344 12 14.5344C14.6688 14.5344 20.0016 15.9744 20.0016 18.6672V20.0016H3.9984V18.6672Z" fill="#F0F6FF"/>
</g>
<defs>
<clipPath id="clip0_37_1954">
<rect width="24" height="24" fill="white"/>
</clipPath>
</defs>
</svg>
