<svg width="54" height="53" viewBox="0 0 54 53" fill="none" xmlns="http://www.w3.org/2000/svg">
<path d="M27.2 26.6C30.2633 26.6 33.2011 25.3831 35.3671 23.2171C37.5332 21.051 38.75 18.1132 38.75 15.05C38.75 11.9867 37.5332 9.04896 35.3671 6.88292C33.2011 4.71687 30.2633 3.5 27.2 3.5C24.1368 3.5 21.199 4.71687 19.0329 6.88292C16.8669 9.04896 15.65 11.9867 15.65 15.05C15.65 18.1132 16.8669 21.051 19.0329 23.2171C21.199 25.3831 24.1368 26.6 27.2 26.6ZM27.2 23.3C25.012 23.3 22.9136 22.4308 21.3664 20.8836C19.8192 19.3365 18.95 17.238 18.95 15.05C18.95 12.862 19.8192 10.7635 21.3664 9.21637C22.9136 7.66919 25.012 6.8 27.2 6.8C29.3881 6.8 31.4865 7.66919 33.0337 9.21637C34.5808 10.7635 35.45 12.862 35.45 15.05C35.45 17.238 34.5808 19.3365 33.0337 20.8836C31.4865 22.4308 29.3881 23.3 27.2 23.3Z" fill="#026BFF"/>
<path d="M23.9 16.7H30.5C30.5 17.5752 30.1523 18.4146 29.5335 19.0335C28.9146 19.6523 28.0752 20 27.2 20C26.3248 20 25.4854 19.6523 24.8666 19.0335C24.2477 18.4146 23.9 17.5752 23.9 16.7Z" fill="#80B5FF"/>
<path d="M16.475 29.9H37.925C43.8485 29.9 48.65 34.3319 48.65 39.8C48.65 45.2681 43.8485 49.7 37.925 49.7H16.475C10.5515 49.7 5.75 45.2681 5.75 39.8C5.75 34.3319 10.5515 29.9 16.475 29.9ZM16.31 33.2C12.3005 33.2 9.05 36.1535 9.05 39.8C9.05 43.4465 12.3005 46.4 16.31 46.4H38.09C42.0995 46.4 45.35 43.4465 45.35 39.8C45.35 36.1535 42.0995 33.2 38.09 33.2H16.31Z" fill="#026BFF"/>
</svg>
