<svg width="52" height="38" viewBox="0 0 52 38" fill="none" xmlns="http://www.w3.org/2000/svg">
<path d="M40.8264 7.44183C40.8264 3.64433 37.7291 0.566895 33.9081 0.566895H7.25206C3.431 0.566895 0.333496 3.64433 0.333496 7.44183V30.5582C0.333496 34.3557 3.431 37.4336 7.25183 37.4336H33.9081C37.7291 37.4336 40.8264 34.3552 40.8264 30.5584C40.8264 30.4387 40.8543 30.3206 40.908 30.2136C40.9617 30.1065 41.0397 30.0135 41.1357 29.942C41.2317 29.8704 41.3431 29.8223 41.461 29.8014C41.5789 29.7806 41.7001 29.7875 41.8148 29.8218L47.6535 31.5617C49.1354 32.0034 50.695 31.1602 51.1367 29.678C51.214 29.4185 51.2533 29.1492 51.2534 28.8784V9.01263C51.2534 7.46633 49.9997 6.21263 48.4534 6.21263C48.1825 6.21262 47.9131 6.25192 47.6535 6.3293L41.71 8.10053C41.6074 8.13114 41.4991 8.13735 41.3937 8.11868C41.2883 8.10001 41.1887 8.05696 41.1029 7.99298C41.017 7.929 40.9473 7.84585 40.8993 7.75016C40.8513 7.65446 40.8264 7.54888 40.8264 7.44183ZM15.0335 25.1122V13.1212C15.0335 11.5746 16.2872 10.3212 17.8335 10.3212C18.3639 10.3211 18.8834 10.4717 19.3315 10.7554L28.7983 16.7504C30.105 17.5778 30.4932 19.3078 29.6658 20.6142C29.4444 20.9638 29.1482 21.26 28.7985 21.4815L19.3317 27.4777C18.0253 28.3053 16.2956 27.9171 15.468 26.6106C15.1841 26.1625 15.0335 25.6429 15.0335 25.1124V25.1122Z" fill="#73869C"/>
</svg>
